<?xml version="1.0" encoding="UTF-8"?> <svg xmlns="http://www.w3.org/2000/svg" xmlns:xlink="http://www.w3.org/1999/xlink" width="32px" height="32px" viewBox="0 0 32 32" version="1.1"><!-- Generator: Sketch 64 (93537) - https://sketch.com --><title>Element/Cross/Loghi/Circuiti/Color/AmericanExpress</title><desc>Created with Sketch.</desc><g id="Styleguide" stroke="none" stroke-width="1" fill="none" fill-rule="evenodd"><g id="Cross/Iconography" transform="translate(-57.000000, -2076.000000)" fill="#016FD0"><g id="Cross/Element/Loghi/Circuiti/Color/AmericanExpress" transform="translate(53.000000, 2072.000000)"><path d="M36,4 L36,9.2928 L31.3624,9.2928 L30.312,12.232 L29.2648,9.2928 L23.1912,9.2928 L23.1912,13.216 L21.4632,9.2928 L16.5448,9.2928 L11.492,20.7592 L15.592,20.7592 L15.592,30.936 L28.2456,30.9632 L30.2328,28.7456 L32.2344,30.9544 L36,30.9544 L36,36 L4,36 L4,4 L36,4 Z M27.7524,20.73208 L30.3172,23.56808 L32.89,20.73208 L35.9996,20.73208 L35.9996,20.80168 L31.8916,25.20008 L35.9996,29.55208 L35.9996,29.67848 L32.8588,29.67848 L30.2484,26.81448 L27.6644,29.67848 L16.9548,29.67848 L16.9548,20.73208 L27.7524,20.73208 Z M24.5412,20.77208 L24.5412,22.79288 L19.4116,22.79288 L19.4116,24.19208 L24.4188,24.19208 L24.4188,26.21848 L19.4116,26.21848 L19.4116,27.59288 L24.5412,27.59288 L24.5412,29.63928 L28.7012,25.20008 L24.5412,20.77208 Z M35.99936,22.65504 L35.99936,27.72064 L33.64096,25.17664 L35.99936,22.65504 Z M36,10.5376 L36,19.4768 L33.6296,19.4976 L33.6296,13.3568 L31.392,19.4768 L29.2288,19.4768 L26.944,13.3352 L26.944,19.4768 L24.5736,19.4768 L24.5744,19.4776 L21.784,19.4776 L21.036,17.688 L16.9776,17.688 L16.2288,19.4776 L13.5056,19.4776 L17.4752,10.5384 L20.6208,10.5384 L24.5376,19.3936 L24.5376,10.5376 L28.3648,10.5504 L30.3336,16.0464 L32.316,10.5376 L36,10.5376 Z M19.0072,12.836 L17.8168,15.6824 L20.196,15.6824 L19.0072,12.836 Z" id="Combined-Shape"></path></g></g></g></svg> 