<?xml version="1.0" encoding="UTF-8"?> <svg xmlns="http://www.w3.org/2000/svg" xmlns:xlink="http://www.w3.org/1999/xlink" width="32px" height="32px" viewBox="0 0 32 32" version="1.1"><!-- Generator: Sketch 64 (93537) - https://sketch.com --><title>Element/Cross/Loghi/Circuiti/Color/Nexi</title><desc>Created with Sketch.</desc><g id="Styleguide" stroke="none" stroke-width="1" fill="none" fill-rule="evenodd"><g id="Cross/Iconography" transform="translate(-1037.000000, -2076.000000)" fill="#2D32AA"><g id="Cross/Element/Loghi/Payment/Color/Nexi" transform="translate(1033.000000, 2072.000000)"><path d="M36,4 L36,36 L4,36 L4,4 L36,4 Z M30.7695724,19.8365664 C30.641927,19.6144633 30.3583998,19.5378903 30.1362967,19.6655357 C29.9141937,19.7931812 29.8376206,20.0767084 29.9652661,20.2988114 C31.4442294,22.9072748 31.4442294,26.100896 29.9652661,28.7093594 C29.882528,28.852663 29.8827024,29.0292624 29.9657235,29.1724022 C30.0487446,29.3155421 30.2019469,29.4033854 30.3674192,29.4027306 C30.5351531,29.4015053 30.6890625,29.3095135 30.7695724,29.1623595 C32.4101425,26.2702155 32.4101425,22.7287104 30.7695724,19.8365664 Z M9.92514512,21.4150943 C9.57051313,21.4150943 9.22432475,21.4509797 8.88657999,21.5227505 C8.63327142,21.5765786 8.40371053,21.6363435 8.19789732,21.7020455 L8.19789732,21.7020455 L8,21.7697263 L8,29.3436526 L8.75992571,29.3436526 L8.75992571,26.962552 L8.87510195,27.0108389 C8.99779829,27.0567511 9.14305492,27.095539 9.31087184,27.1272026 C9.53462775,27.1694207 9.75627275,27.1905297 9.97580684,27.1905297 C10.4317623,27.1905297 10.8433887,27.1250917 11.2106861,26.9942156 C11.5779835,26.8633395 11.8925083,26.6733581 12.1542605,26.4242713 C12.4160127,26.1751845 12.6186596,25.8712142 12.7622011,25.5123604 C12.9057426,25.1535066 12.9775134,24.7503238 12.9775134,24.302812 C12.9775134,23.3486831 12.7073176,22.6288646 12.166926,22.1433565 C11.6265343,21.6578484 10.8792741,21.4150943 9.92514512,21.4150943 Z M18.4851654,21.5417486 L17.6492471,21.5417486 L19.9543551,27.4311729 L19.2070948,29.3436526 L19.9543551,29.3436526 L22.9433962,21.5417486 L22.1581397,21.5417486 L20.334318,26.5699237 L18.4851654,21.5417486 Z M28.4202704,20.586679 C28.2465437,20.5824602 28.0851294,20.6760337 28.0024596,20.8288882 C27.9197898,20.9817427 27.9298344,21.168048 28.0284595,21.311128 C29.184137,23.2886958 29.184137,25.7356536 28.0284595,27.7132214 C27.9461318,27.8558102 27.945865,28.0314272 28.027759,28.1742656 C28.109653,28.3171039 28.2613438,28.4055985 28.4259902,28.4066333 C28.588617,28.4088397 28.7404604,28.3254574 28.8258321,28.1870225 C30.1511367,25.9204935 30.1511367,23.115412 28.8258321,20.848883 C28.7506792,20.6921959 28.5939972,20.5908978 28.4202704,20.586679 Z M26.5439081,21.5345785 C26.3678656,21.5329118 26.2061482,21.6313692 26.1268189,21.7885336 C26.0474896,21.9456981 26.0643231,22.1342797 26.1702345,22.2749088 C27.0155953,23.6433061 27.0155953,25.3717984 26.1702345,26.7401956 C26.0823181,26.8827209 26.0783608,27.0616495 26.1598899,27.2079224 C26.241419,27.3541952 26.3956832,27.4449348 26.5631428,27.4451698 C26.7210457,27.4474508 26.8692122,27.3690097 26.9560511,27.237109 C27.9868552,25.5700432 27.9868552,23.463551 26.9560511,21.7964852 C26.8797502,21.6378285 26.7199506,21.536288 26.5439081,21.5345785 Z M15.5666888,21.4150943 C15.2458313,21.4150943 14.9397501,21.4552015 14.6484453,21.5354159 C14.4299666,21.5955767 14.226924,21.6687987 14.0393173,21.7550819 L14.0393173,21.7550819 L13.856856,21.8457189 L13.856856,22.5676483 L14.1101646,22.4416977 C14.2790369,22.3638287 14.4479093,22.2981562 14.6167817,22.2446799 C14.8700903,22.1644655 15.1571733,22.1243583 15.4780308,22.1243583 C15.8326628,22.1243583 16.1155241,22.2151272 16.3266145,22.396665 C16.5075492,22.5522689 16.6109405,22.7714583 16.6367883,23.0542334 L16.6367883,23.0542334 L16.6432502,23.2009198 L16.6432502,23.8721875 L16.0226443,23.8721875 L15.7480703,23.8773474 C15.0342196,23.9048674 14.467142,24.0424671 14.0468374,24.2901466 C13.5739948,24.568786 13.3375734,24.9825234 13.3375734,25.5313586 C13.3375734,25.8268853 13.3966788,26.075972 13.5148894,26.2786189 C13.6331001,26.4812657 13.8019725,26.6501381 14.0215066,26.785236 C14.2410406,26.9203339 14.5049037,27.0174355 14.8130958,27.0765409 C15.1212879,27.1356462 15.4611436,27.1651989 15.8326628,27.1651989 C16.0690842,27.1651989 16.3266145,27.1483116 16.605254,27.1145371 C16.7910136,27.0920208 16.9711441,27.0619991 17.1456456,27.0244719 L17.1456456,27.0244719 L17.403176,26.962552 L17.403176,23.150258 L17.3969996,22.9486275 C17.3640591,22.4286674 17.1993564,22.0504767 16.9028915,21.8140553 C16.5693686,21.5480813 16.1239677,21.4150943 15.5666888,21.4150943 Z M9.92514512,22.1116929 C10.65974,22.1116929 11.2233515,22.3058961 11.6159798,22.6943026 C12.0086081,23.0827091 12.2049222,23.6188789 12.2049222,24.302812 C12.2049222,25.012076 12.0022754,25.5609113 11.5969817,25.9493177 C11.191688,26.3377242 10.6512964,26.5319274 9.97580684,26.5319274 C9.59584398,26.5319274 9.25106288,26.4791548 8.94146351,26.3736096 L8.94146351,26.3736096 L8.75992571,26.3039497 L8.75992571,22.263678 L8.87351877,22.2280565 C8.99304875,22.1948098 9.13038949,22.1686873 9.28554099,22.1496892 C9.49240965,22.1243583 9.70561103,22.1116929 9.92514512,22.1116929 Z M16.6432502,24.4927935 L16.6432502,26.4559349 L16.3772762,26.498153 C16.2027748,26.5206693 16.0339024,26.5319274 15.8706591,26.5319274 C15.6173505,26.5319274 15.3830401,26.5150402 15.1677278,26.4812657 C14.9524155,26.4474912 14.764545,26.3904968 14.6041163,26.3102824 C14.4436875,26.2300681 14.3191441,26.1266337 14.2304861,25.9999794 C14.1418281,25.8733252 14.0974991,25.7171182 14.0974991,25.5313586 C14.0974991,25.345599 14.1460499,25.1872811 14.2431516,25.056405 C14.3402532,24.9255289 14.477462,24.8178728 14.654778,24.7334366 C14.832094,24.6490004 15.0410735,24.5877842 15.2817167,24.5497879 C15.4421454,24.524457 15.6128942,24.5075698 15.7939629,24.4991262 L15.7939629,24.4991262 L16.073306,24.4927935 L16.6432502,24.4927935 Z M25.1417394,22.6886181 C24.9916606,22.4894178 24.7106151,22.4451956 24.5066149,22.5886819 C24.3026147,22.7321683 24.2492282,23.0116179 24.3859688,23.2201999 C24.9296856,23.9931673 24.9296856,25.0242484 24.3859688,25.7972158 C24.2861872,25.9391665 24.274304,26.1250409 24.3551968,26.2785424 C24.4360896,26.4320438 24.5961326,26.5273159 24.7696322,26.5252846 C24.9175918,26.5238239 25.0559257,26.4516497 25.1417394,26.3311088 C25.910694,25.2386939 25.910694,23.781033 25.1417394,22.6886181 Z M18.9937533,11 C16.9716673,11 15.4259273,12.4347179 15.4259273,14.6226415 C15.4259273,16.7268823 16.9394883,18.245283 19.1803071,18.245283 C20.851503,18.245283 21.8564785,17.3800784 22.3816062,16.7272438 L22.3816062,16.7272438 L21.2128981,15.7813084 L21.1294482,15.8755548 C20.7499432,16.2871795 20.1351942,16.7286295 19.1803071,16.7286295 C18.3748657,16.7286295 17.640363,16.2844296 17.3038417,15.5461651 L17.3038417,15.5461651 L22.5615793,14.6226415 L22.5531947,14.3689301 C22.5253922,13.9498786 22.4291805,13.5506095 22.2755302,13.1828027 C21.7390522,11.8985814 20.4986205,11 18.9937533,11 Z M11.3659374,11.0602468 C9.71061971,11.0602468 8,11.6375319 8,11.6375319 L8,11.6375319 L8,18.0856892 L9.79170117,18.0856892 L9.79170117,12.8428298 C9.87815668,12.8085545 10.492592,12.5769004 11.3659374,12.5769004 C12.5245028,12.5769004 13.0093615,13.2064194 13.0093615,14.1822372 L13.0093615,14.1822372 L13.0093615,18.0856892 L14.7769133,18.0856892 L14.7769133,14.1822372 L14.7738399,13.9816301 C14.7122128,12.0096703 13.7190391,11.0602468 11.3659374,11.0602468 Z M31.9468647,11.2409873 L30.2174085,11.2409873 L30.2174085,18.0720132 L31.9468647,18.0720132 L31.9468647,11.2409873 Z M23.2104725,11.2409873 L22.1590699,11.2409873 L24.8621678,14.6233042 L22.0670005,18.0720132 L24.1867707,18.0720132 L25.917374,15.9436134 L26.9139576,17.1906021 L27.0308275,17.3249496 C27.4792336,17.7994026 28.1397437,18.0720132 28.7941661,18.0720132 L28.7941661,18.0720132 L29.8330111,18.0720132 L27.0380249,14.5652865 L29.7409417,11.2409873 L27.6034821,11.2409873 L25.9825169,13.2409409 L25.0932168,12.1251094 L24.976297,11.9903669 C24.5276372,11.5145091 23.8661125,11.2409873 23.2104725,11.2409873 L23.2104725,11.2409873 Z M18.9931496,12.4779751 C19.7725701,12.4779751 20.4209803,12.8413237 20.6862006,13.4628299 L20.6862006,13.4628299 L17.1571947,14.0846976 L17.1960925,13.9070073 C17.4331914,12.9851258 18.1379782,12.4779751 18.9931496,12.4779751 Z" id="Combined-Shape"></path></g></g></g></svg> 