<?xml version="1.0" encoding="UTF-8"?> <svg xmlns="http://www.w3.org/2000/svg" xmlns:xlink="http://www.w3.org/1999/xlink" width="40px" height="26px" viewBox="0 0 40 26" version="1.1"><!-- Generator: Sketch 64 (93537) - https://sketch.com --><title>Element/Cross/Loghi/Circuiti/Color/ApplePay</title><desc>Created with Sketch.</desc><g id="Styleguide" stroke="none" stroke-width="1" fill="none" fill-rule="evenodd"><g id="Cross/Iconography" transform="translate(-837.000000, -2079.000000)"><g id="Cross/Element/Loghi/Payment/Color/ApplePay" transform="translate(837.000000, 2072.000000)"><path d="M36.3982129,7.86101289 L36.8020524,7.86173704 C36.9112244,7.86246118 37.0206378,7.8636681 37.1305344,7.86680608 C37.3218268,7.87187512 37.5457258,7.88225458 37.7544085,7.91966894 C37.9355566,7.95225563 38.087721,8.00198052 38.2336056,8.07608507 C38.3777995,8.14922409 38.5096754,8.2452945 38.6248856,8.36019277 C38.7405789,8.47605657 38.8367081,8.60809304 38.9108581,8.75364694 C38.9847666,8.89847669 39.0340389,9.0495824 39.0666455,9.23206789 C39.1038412,9.43845029 39.1142271,9.66269502 39.1192992,9.85507721 C39.1224392,9.96345815 39.1238883,10.0720805 39.1243714,10.183358 C39.1253375,10.3178083 39.1253375,10.4520172 39.1253375,10.5867089 L39.1253375,29.0085707 C39.1253375,29.1432624 39.1253375,29.2774713 39.1243714,29.4145768 C39.1238883,29.5231992 39.1224392,29.6318215 39.1192992,29.7406852 C39.1142271,29.9325846 39.1038412,30.1568294 39.0661624,30.3653842 C39.0340389,30.5454558 38.9847666,30.6965615 38.9103751,30.8421155 C38.8364666,30.987428 38.7405789,31.1192231 38.6253687,31.2343627 C38.5094339,31.3502265 38.3780411,31.4458141 38.2321565,31.5196774 C38.087238,31.5935405 37.9355566,31.6432654 37.7560992,31.6753693 C37.543069,31.7132664 37.3099918,31.7238872 37.1343989,31.7284735 C37.0240193,31.7311288 36.9141227,31.732577 36.8013278,31.7330599 C36.6672782,31.7340253 36.532504,31.7340253 36.3982129,31.7340253 L3.58021148,31.7340253 C3.57852076,31.7340253 3.57683005,31.7340253 3.57489781,31.7340253 C3.44229737,31.7340253 3.30921389,31.7340253 3.17419816,31.7330599 C3.0640601,31.732577 2.95416358,31.7311288 2.84789,31.7287149 C2.66819107,31.7238872 2.43487229,31.7132664 2.22377434,31.6756107 C2.04262622,31.6432654 1.89094487,31.5935405 1.74409412,31.5187118 C1.59965868,31.4455728 1.46826591,31.3499851 1.35233112,31.2338799 C1.23736244,31.1192231 1.14171623,30.9876694 1.06780779,30.8421155 C0.993657835,30.6968029 0.944144009,30.5452145 0.91153735,30.3629704 C0.874100071,30.1546568 0.863714246,29.9316191 0.858400567,29.7406852 C0.855502197,29.6315801 0.854294543,29.5222336 0.85356995,29.4138527 L0.853086888,29.0932962 L0.853086888,10.5022248 L0.85356995,10.1823925 C0.854294543,10.073046 0.855502197,9.96394091 0.858400567,9.85483583 C0.863714246,9.66366056 0.874100071,9.44038136 0.912020411,9.23037821 C0.944144009,9.05006517 0.993657835,8.8982353 1.06804933,8.75219864 C1.1414747,8.60785165 1.23736244,8.47605657 1.35281417,8.36067554 C1.46802438,8.2452945 1.60014174,8.14970686 1.74530177,8.07584369 C1.8904618,8.00173913 2.04262622,7.95225563 2.22377434,7.91966894 C2.43245698,7.88225458 2.65635606,7.87187512 2.84813154,7.86680608 C2.95730347,7.8636681 3.06671694,7.86246118 3.17516428,7.86173704 L3.58021148,7.86101289 L36.3982129,7.86101289" id="wihit-fill" fill="#FFFFFE" fill-rule="nonzero"></path><path d="M36.7627335,7.00079607 C36.8776597,7.00161627 36.9925859,7.0028948 37.1080355,7.00603084 C37.358149,7.01280951 37.6108896,7.02759714 37.8589985,7.07208064 C38.1101229,7.11733609 38.3441678,7.19115361 38.5724714,7.30738003 C38.7971324,7.42150771 39.0019881,7.57078315 39.180407,7.74891014 C39.3582445,7.92703713 39.5075175,8.13215818 39.621913,8.35681916 C39.7384265,8.58509865 39.8122223,8.81916774 39.8569446,9.07082278 C39.9016935,9.31840096 39.9162133,9.57114155 39.9229944,9.82151805 C39.9261304,9.9364418 39.9276767,10.0513656 39.9282075,10.1662652 L39.9291341,10.3710907 L39.9291341,10.3710907 L39.9291341,29.1914465 L39.9282075,29.3963839 C39.9276767,29.5112835 39.9261304,29.6262073 39.9229944,29.741131 C39.9162157,29.991288 39.9016935,30.2440286 39.8569446,30.4915344 C39.8122199,30.7432859 39.7384265,30.9772586 39.621913,31.2055622 C39.5075175,31.4302231 39.3582445,31.6356095 39.180407,31.8134712 C39.0019881,31.9918877 38.7971324,32.141139 38.5724714,32.2549772 C38.3441678,32.3715172 38.1101229,32.4453588 37.8589985,32.4905902 C37.6108872,32.5347842 37.3581466,32.5498372 37.1080355,32.5566158 C36.9925859,32.5592212 36.8776597,32.5607651 36.7627335,32.5612958 L36.558107,32.5622245 L36.558107,32.5622245 L3.3709897,32.5622245 L3.16631102,32.5612958 C3.0511195,32.5607651 2.93619574,32.5592212 2.82127199,32.5566158 C2.57063014,32.5498372 2.3178413,32.5347842 2.07033549,32.4905902 C1.81887344,32.4453588 1.58487671,32.3715172 1.35659723,32.2549772 C1.13217748,32.141139 0.926718704,31.9918877 0.748666494,31.8134712 C0.57053709,31.6356095 0.421261652,31.4302231 0.307158094,31.2055622 C0.190907556,30.9772586 0.117041785,30.7432859 0.0720999397,30.4915344 C0.027377617,30.2440286 0.012491083,29.991288 0.0057365383,29.741131 L0.0022787542,29.5687484 L0.0022787542,29.5687484 L0.000574136298,29.3963839 L0.000574136298,10.1662652 C0.00132437322,10.0513656 0.00264874645,9.9364418 0.0057365383,9.82151805 C0.012491083,9.57114155 0.027377617,9.31840096 0.0720999397,9.07082278 C0.117041785,8.81916774 0.190907556,8.58509865 0.307158094,8.35681916 C0.421261652,8.13215818 0.57053709,7.92703713 0.748666494,7.74891014 C0.926718704,7.57078315 1.13217748,7.42150771 1.35659723,7.30738003 C1.58487671,7.19115361 1.81887344,7.11733609 2.07033549,7.07208064 C2.3178413,7.02759714 2.57063014,7.01280951 2.82127199,7.00603084 L2.99369109,7.00254502 L2.99369109,7.00254502 L3.16631102,7.00079607 L36.7627335,7.00079607 Z M36.3534588,7.85203756 L3.57585112,7.85203756 L3.17127802,7.85283363 C3.06291583,7.85358146 2.95373344,7.8547635 2.84455105,7.85773068 C2.65301146,7.86291721 2.42936366,7.87324201 2.22098596,7.91068149 C2.04013302,7.94322392 1.88822814,7.99279745 1.74322254,8.0666391 C1.5980722,8.14045662 1.46633687,8.23615404 1.35126837,8.35127078 C1.23573912,8.4667735 1.14006582,8.59843887 1.06680314,8.74267253 C0.992503145,8.88859481 0.943074352,9.04023434 0.910845524,9.22065305 C0.872947704,9.43047816 0.8626229,9.65366761 0.85746291,9.84450762 L0.854180021,10.0081485 L0.854180021,10.0081485 L0.852563453,10.1718618 L0.852056862,29.0711019 L0.852587576,29.3914362 C0.853287154,29.4999431 0.854517446,29.6090773 0.85746291,29.7182355 C0.8626229,29.9088826 0.872947704,30.1319755 0.910534333,30.3400638 C0.943050228,30.5221229 0.992503145,30.6737624 1.06641716,30.818961 C1.14025881,30.9643043 1.23576325,31.0958008 1.350687,31.2105316 C1.46650332,31.3265409 1.59780925,31.4219729 1.74204049,31.495115 C1.88861411,31.5699216 2.04023193,31.619471 2.22108245,31.6519893 C2.43189661,31.6896459 2.66490428,31.7000431 2.84428569,31.7048919 C2.95042853,31.7073042 3.06021401,31.7087733 3.17024072,31.7092823 L3.37128491,31.71019 L3.37128491,31.71019 L36.554803,31.710193 L36.7561285,31.7093065 C36.8686134,31.7087733 36.978423,31.7072801 37.0887633,31.7047954 C37.2641403,31.7000431 37.4970032,31.6896218 37.7095518,31.6517481 C37.8888609,31.6194734 38.0404787,31.5699216 38.1851465,31.49608 C38.3307528,31.4222866 38.4621553,31.326758 38.5779209,31.2109658 C38.6929677,31.0959697 38.7887616,30.9640631 38.8626298,30.8189368 C38.9368309,30.6735935 38.9860884,30.5224123 39.0180543,30.3425002 C39.0557591,30.1340019 39.0660574,29.9100164 39.0712704,29.7180667 C39.0742376,29.6093668 39.0756826,29.5008598 39.0761916,29.392377 L39.0770993,29.1884742 L39.0770993,29.1884742 L39.0771023,10.3743866 L39.0762157,10.172875 C39.0756826,10.0617869 39.0742352,9.95327992 39.0712946,9.84477298 C39.0660574,9.65253382 39.0557567,9.42842767 39.0185102,9.22236581 C38.9860884,9.03994486 38.9368043,8.8887878 38.8630134,8.74416817 C38.7889305,8.59868011 38.6929894,8.46662876 38.5774384,8.35090893 C38.4623265,8.23596106 38.3304899,8.14014302 38.186594,8.06702507 C38.0408381,7.99282157 37.8889598,7.94322392 37.7078656,7.91060912 C37.4995361,7.87326613 37.2760379,7.86291721 37.0849784,7.8577548 L36.9206014,7.8544499 L36.9206014,7.8544499 L36.7566786,7.85280951 L36.3534588,7.85203756 Z M29.6123605,17.1822662 L31.2972141,22.6036833 L31.3223796,22.6036833 L33.0072356,17.1822662 L34.4511884,17.1822662 L31.9556664,24.193252 C31.3859061,25.8083529 30.7272077,26.3276616 29.3465378,26.3276616 C29.2324415,26.3276616 28.8903889,26.3149558 28.7892372,26.2960214 L28.7892372,25.1876488 C28.8903865,25.2129374 29.1183403,25.2129374 29.232439,25.2129374 C29.8657259,25.2129374 30.2077784,24.9469892 30.4166748,24.2630072 C30.4166748,24.2503014 30.5371252,23.8576742 30.5371252,23.8513225 L28.1305388,17.1822662 L29.6123605,17.1822662 Z M24.9042498,17.0619364 C26.5192277,17.0619364 27.5514934,17.916946 27.5514934,19.2532747 L27.5514934,23.8449684 L26.2404556,23.8449684 L26.2404556,22.7492992 L26.2089384,22.7492992 C25.8226629,23.4903331 24.9802361,23.9589441 24.1062897,23.9589441 C22.8016011,23.9589441 21.8895422,23.1482781 21.8895422,21.951339 C21.8895422,20.7859147 22.782546,20.0702924 24.3660067,19.9816028 L26.1898809,19.8739788 L26.1898809,19.3610218 C26.1898809,18.6199879 25.6895067,18.176663 24.8536752,18.176663 C24.061823,18.176663 23.5678005,18.5565869 23.4475937,19.1520024 L22.1556085,19.1520024 C22.2315947,17.9485862 23.2575087,17.0619364 24.9042498,17.0619364 Z M11.4067518,16.403899 C11.7233566,16.4283891 12.6365952,16.525862 13.2210756,17.390311 C13.1723632,17.4273211 12.1373523,18.0241068 12.1496504,19.2787659 C12.161729,20.7771989 13.4643622,21.2769219 13.4765927,21.2891066 C13.4643646,21.3258947 13.2699423,21.9960372 12.7950061,22.6900667 C12.3810104,23.2994858 11.9547118,23.8964235 11.2728285,23.9086155 C10.6152904,23.9208002 10.3959752,23.5185864 9.64148049,23.5185864 C8.88643095,23.5185864 8.64296097,23.8964259 8.02179857,23.9208002 C7.36436668,23.9448802 6.86542535,23.2745181 6.45142483,22.6656924 C5.59890962,21.4350747 4.95359249,19.1937455 5.83026243,17.6827539 C6.25648626,16.9274438 7.03583527,16.4525462 7.87575566,16.4402095 C8.5210728,16.4283891 9.11771379,16.8669496 9.50755234,16.8669496 C9.89717619,16.8669496 10.5908727,16.3553001 11.4067518,16.403899 Z M18.5107935,14.7059223 C20.284093,14.7059223 21.5189058,15.9282754 21.5189058,17.7079266 C21.5189058,19.4939319 20.2586839,20.7226343 18.4663269,20.7226343 L16.5029448,20.7226343 L16.5029448,23.844966 L15.0844011,23.844966 L15.0844011,14.7059223 L18.5107935,14.7059223 Z M26.1898809,20.824032 L24.5494915,20.9253044 C23.7324739,20.9823538 23.2702145,21.3433407 23.2702145,21.9133471 C23.2702145,22.4959362 23.7515313,22.8759807 24.4862135,22.8759807 C25.4424954,22.8759807 26.1898809,22.2172847 26.1898809,21.3496924 L26.1898809,20.824032 Z M18.1369753,15.9029868 L16.5029424,15.9029868 L16.5029424,19.5319238 L18.1306236,19.5319238 C19.36568,19.5319238 20.0685989,18.8669968 20.0685989,17.7142783 C20.0685989,16.5616828 19.36568,15.9029868 18.1369753,15.9029868 Z M11.4131348,14.0091596 C11.4743238,14.595898 11.242322,15.1700729 10.9004359,15.5976983 C10.5462204,16.0133247 9.9849322,16.3428717 9.42312536,16.2941401 C9.34986991,15.7319979 9.6308662,15.1337817 9.94834669,14.7672994 C10.3019302,14.3393387 10.9126617,14.0340453 11.4131348,14.0091596 Z" id="Combined-Shape" fill="#000000" fill-rule="evenodd"></path></g></g></g></svg> 