<?xml version="1.0" encoding="UTF-8"?> <svg xmlns="http://www.w3.org/2000/svg" xmlns:xlink="http://www.w3.org/1999/xlink" width="40px" height="26px" viewBox="0 0 40 26" version="1.1"><!-- Generator: Sketch 64 (93537) - https://sketch.com --><title>Element/Cross/Loghi/Circuiti/Color/Contactless</title><desc>Created with Sketch.</desc><g id="Styleguide" stroke="none" stroke-width="1" fill="none" fill-rule="evenodd"><g id="Cross/Iconography" transform="translate(-1229.000000, -2079.000000)" fill="#000000"><g id="Cross/Element/Loghi/Payment/Contactless" transform="translate(1229.000000, 2072.000000)"><path d="M17.1119642,7 C24.5242321,7 31.0584025,10.5155149 33.3614553,15.749726 C33.3772132,15.785327 33.3894528,15.8219217 33.398225,15.8590376 C33.4442335,15.9066317 33.4905536,15.9533869 33.5364499,15.9997182 L33.6739456,16.1372139 C34.3426746,16.802818 38.9862792,24.2338354 39.9050005,25.715039 C40.0255339,25.907891 40.0317958,26.1509957 39.9213505,26.3497972 C39.8109052,26.5485987 39.6011874,26.6717147 39.3737671,26.6712603 C39.1578354,26.6716911 38.9569773,26.5606284 38.8425337,26.3775182 C36.7425995,23.0088737 33.2427091,17.4871716 32.7895983,17.0215612 L32.6489777,16.8809406 C32.1146194,16.3434574 31.6083852,15.8340984 31.0646523,15.8340984 C30.4227019,15.8340984 28.8376602,15.9608379 28.1375868,16.0199957 L28.002,16.807 L31.7271315,18.8715033 L31.1209005,19.965219 L24.4742336,16.2590851 C23.5836365,15.7653505 23.2930206,16.0590913 23.1961487,16.1559633 C22.6274165,16.7246955 22.8836584,17.1403075 23.1961487,17.4402981 C23.5086389,17.7402887 25.1742117,19.102746 25.7210696,19.5464821 L27.3210195,20.8401916 C28.486608,21.7776623 29.4053292,22.5245139 29.6740708,22.7620064 C30.1740552,23.2057425 30.4365469,23.9275949 30.689664,24.6369477 C30.7784878,24.9139081 30.8868467,25.1840772 31.0138701,25.4454352 C31.0254547,25.4599188 31.0344469,25.4762734 31.042778,25.4931709 L31.0562475,25.530932 C31.0891342,25.5960049 31.1231894,25.6605094 31.1583993,25.7244137 C31.5540684,26.4328828 32.1227876,27.0295543 32.8114726,27.4587344 C33.2943639,27.7253686 33.8255022,27.8932083 34.3739236,27.9524689 C34.7190908,27.9654127 34.9884111,28.2557189 34.9754673,28.6008861 C34.9625235,28.9460533 34.6722173,29.2153735 34.3270501,29.2024298 L34.3145505,29.1993049 L34.2645521,29.1993049 C33.5339052,29.1226483 32.8266934,28.8971913 32.1864921,28.5368256 C31.6668761,28.220048 31.20064,27.8272312 30.8023035,27.3733507 C30.7760123,27.4204567 30.7422605,27.4635038 30.7021636,27.502483 C27.4366409,30.6836334 22.4992955,32.4929517 17.1119642,32.4929517 C7.67475968,32.4929517 0,26.7743808 0,19.7464759 C0,12.7185709 7.67475968,7 17.1119642,7 Z M17.1119642,8.24996086 C8.36536305,8.24996086 1.24996086,13.4060494 1.24996086,19.7464759 C1.24996086,26.0869023 8.36536305,31.2429909 17.1119642,31.2429909 C22.0202574,31.2429909 26.5388638,29.645865 29.5716637,26.8504632 C29.1863258,26.9943807 28.8013903,27.1056204 28.5334815,27.1056204 C27.7491311,27.1056204 25.2554592,25.7212888 25.0085919,25.5431694 C24.3182455,25.0979831 24.0676751,24.2082572 24.4242352,23.4682343 C24.5025753,23.2918751 24.608705,23.1334129 24.7361844,22.9971456 C24.5021678,22.8181356 24.2723689,22.6328839 24.046122,22.4432664 C23.468056,21.8652003 23.3167403,21.1224236 23.6278587,20.4803328 L20.6462285,19.9620941 C19.834715,19.8206612 19.2908836,19.0489518 19.4306416,18.2371481 L20.311864,13.099809 C20.4532969,12.2882955 21.2250063,11.744464 22.03681,11.8842221 L27.1866487,12.7748192 C27.9981622,12.9162521 28.5419937,13.6879615 28.4022356,14.4997652 L28.3581829,14.7473574 C29.1605182,14.682644 30.4661174,14.5810126 31.0646523,14.5810126 C31.1399329,14.5810126 31.2136227,14.5847713 31.2858032,14.5919923 C28.6320039,10.7357774 23.2005273,8.24996086 17.1119642,8.24996086 Z M15.5057645,13.3466763 C17.7239046,17.2570124 17.7239046,22.0453203 15.5057645,25.9556564 C15.3969107,26.1546166 15.1888168,26.2789945 14.9620315,26.2806512 C14.7383039,26.2815365 14.5311661,26.1627676 14.418917,25.9692348 C14.306668,25.7757019 14.3064321,25.5369299 14.4182985,25.3431756 C16.4179374,21.8163911 16.4179374,17.4984413 14.4182985,13.9716567 C14.2457149,13.6713613 14.3492458,13.2880171 14.6495413,13.1154335 C14.9498367,12.9428499 15.3331809,13.0463808 15.5057645,13.3466763 Z M25.5679494,23.9869681 C25.4628286,24.1711423 25.5238574,24.4055484 25.7054451,24.5150765 C26.1460563,24.8088174 28.1459937,25.808786 28.5584807,25.8556596 C28.9360621,25.7548944 29.3052753,25.6260131 29.6630585,25.4702184 C29.6076669,25.333887 29.5590357,25.1970993 29.5147008,25.0588095 C29.4866582,24.9815773 29.4580068,24.9027896 29.4286971,24.8238293 C29.0439187,24.8912147 28.6550563,24.9300526 28.2647399,24.9400632 C27.8428313,24.9736628 27.4209993,24.8742154 27.0585277,24.6556971 C26.9491561,24.5681999 26.5929173,24.3182077 26.2148041,24.0557159 L25.7751829,23.7575693 C25.6825745,23.8061413 25.6082158,23.8865906 25.5679494,23.9869681 Z M12.3293803,14.3608694 C12.5642683,14.3665734 12.7761109,14.503534 12.8777218,14.7153834 C14.6696057,17.7798541 14.6696057,21.572477 12.8777218,24.6369477 C12.7622946,24.8241193 12.556994,24.9368566 12.3371137,24.9338735 C12.1145028,24.9324744 11.9094085,24.8128249 11.7986834,24.6196996 C11.6879582,24.4265744 11.688319,24.1891307 11.7996305,23.9963428 C13.3621695,21.3225634 13.3621695,18.0141432 11.7996305,15.3403638 C11.666284,15.1469119 11.6527031,14.895017 11.7644772,14.6883494 C11.8762513,14.4816818 12.0944922,14.3551653 12.3293803,14.3608694 Z M24.7710993,20.955813 C24.7273507,21.018311 24.5961048,21.2058052 24.9179697,21.5276701 C25.1617121,21.7714125 26.2616777,22.5401384 26.9179071,22.999499 C27.3710179,23.3119892 27.6491342,23.5088581 27.7928797,23.6244794 C28.1171017,23.6586699 28.4433216,23.6626432 28.7673565,23.6366085 C28.4261802,23.3447706 27.5106546,22.6114597 26.5366691,21.8276607 L25.21,20.754 L25.0134402,20.7191232 C24.9426366,20.7648648 24.8593022,20.8382092 24.7710993,20.955813 Z M9.79243619,15.6424811 C10.0304552,15.6447924 10.246513,15.7820807 10.3496759,15.9965933 C11.7433793,18.250557 11.7433793,21.0986492 10.3496759,23.3526129 C10.232265,23.5309498 10.0319359,23.6370064 9.81844255,23.6339225 C9.59202807,23.6336047 9.3834545,23.5109198 9.27322267,23.313151 C9.16299084,23.1153821 9.16834137,22.8734609 9.28720919,22.680759 C10.4301829,20.8306114 10.4301829,18.4935956 9.28720919,16.643448 C9.14401111,16.4533098 9.1212513,16.1983372 9.22850884,15.9858423 C9.33576639,15.7733474 9.55441718,15.6402276 9.79243619,15.6424811 Z M7.89662773,17.2028055 C8.93629622,18.67981 8.93629622,20.6506469 7.89662773,22.1276513 C7.78060297,22.2906291 7.59356793,22.3882126 7.39351849,22.3901875 C7.15893766,22.3929339 6.94255084,22.264121 6.83317932,22.0565786 C6.7238078,21.8490363 6.73987461,21.5977239 6.87478473,21.4057989 C7.60991945,20.3607048 7.60991945,18.9666271 6.87478473,17.921533 C6.68990403,17.6395188 6.76208541,17.2616878 7.0379048,17.0676864 C7.3137242,16.873685 7.693713,16.9334758 7.89662773,17.2028055 Z M21.6680715,13.1529323 C21.6151958,13.1895554 21.579184,13.2458239 21.5680746,13.3091774 L20.6774775,18.434017 C20.656509,18.565517 20.7436121,18.6899501 20.8743464,18.7152582 L23.2106814,19.1207263 C22.7328213,18.7230931 22.4467787,18.4750394 22.3118013,18.3433948 C21.3743307,17.4059242 21.3743307,16.2340859 22.3118013,15.2903654 C22.705539,14.8966277 23.5898863,14.3528948 25.0804647,15.1872436 L26.845,16.165 L27.1710242,14.2841469 C27.1937475,14.1522486 27.1058644,14.0267014 26.9741554,14.0029057 L21.8493158,13.1123086 C21.7858914,13.1006838 21.7204663,13.115348 21.6680715,13.1529323 Z" id="Combined-Shape"></path></g></g></g></svg> 