<?xml version="1.0" encoding="UTF-8"?> <svg xmlns="http://www.w3.org/2000/svg" xmlns:xlink="http://www.w3.org/1999/xlink" width="38px" height="29px" viewBox="0 0 38 29" version="1.1"><!-- Generator: Sketch 64 (93537) - https://sketch.com --><title>Element/Cross/Loghi/Circuiti/Color/JCB</title><desc>Created with Sketch.</desc><defs><linearGradient x1="-57.4211879%" y1="49.9698977%" x2="232.742244%" y2="49.9698977%" id="linearGradient-1"><stop stop-color="#167C4E" offset="0%"></stop><stop stop-color="#379051" offset="29%"></stop><stop stop-color="#67AD55" offset="77%"></stop><stop stop-color="#79B857" offset="100%"></stop></linearGradient><linearGradient x1="0%" y1="49.9973537%" x2="100%" y2="49.9973537%" id="linearGradient-2"><stop stop-color="#323572" offset="0%"></stop><stop stop-color="#2D3B79" offset="8%"></stop><stop stop-color="#0D66A9" offset="69%"></stop><stop stop-color="#0077BB" offset="100%"></stop></linearGradient><linearGradient x1="0%" y1="50.0238259%" x2="100%" y2="50.0238259%" id="linearGradient-3"><stop stop-color="#6C3638" offset="0%"></stop><stop stop-color="#993640" offset="36%"></stop><stop stop-color="#C93649" offset="79%"></stop><stop stop-color="#DB364C" offset="100%"></stop></linearGradient></defs><g id="Styleguide" stroke="none" stroke-width="1" fill="none" fill-rule="evenodd"><g id="Cross/Iconography" transform="translate(-152.000000, -2078.000000)"><g id="Cross/Element/Loghi/Circuiti/Color/JCB" transform="translate(151.000000, 2072.000000)"><g id="Group" transform="translate(1.000000, 6.000000)"><path d="M6.00623296,-1.24344979e-14 L38,-1.24344979e-14 L38,23.8632198 C37.7644693,27.2877399 35.7629449,29 31.9954268,29 C22.4257873,29 11.760645,29 -4.54747351e-13,29 C-4.54747351e-13,13.7290112 -4.54747351e-13,6.07560034 -4.54747351e-13,6.03976749 C-4.54747351e-13,2.01325583 2.00207765,-1.24344979e-14 6.00623296,-1.24344979e-14 Z" id="Rectangle" fill="#FFFFFF"></path><path d="M37,1 L37,23.5007144 C37,25.9856012 35.0035519,28 32.5408084,28 L32.5408084,28 L26,28 L26,18.8271154 L32.918898,18.8271154 C34.5346292,18.8271154 35.7510299,17.9455469 35.7510299,16.5767582 C35.7510299,15.3094142 34.6422503,14.5064296 33.1950309,14.4049849 L33.1950309,14.4049849 L33.1950309,14.3535482 C34.5063079,14.1592316 35.2256694,13.2976663 35.2256694,12.287506 C35.2256694,11.0015876 34.1721164,10.2614701 32.7447219,10.1900302 C32.6328527,10.184315 32.4487642,10.1728846 32.3071576,10.1728846 L32.3071576,10.1728846 L26.0070803,10.1728846 L26.0070803,5.4992856 C26.0070803,3.01439878 28.0035284,1 30.4662719,1 L30.4662719,1 L37,1 Z M31.028222,15.0479441 C31.1312378,15.0492697 31.2339878,15.0588249 31.3355083,15.0765201 C31.8680449,15.2026011 32.2445332,15.6819278 32.2445332,16.2338466 C32.2445332,16.7857655 31.8680449,17.2650922 31.3355083,17.3911732 L31.1825059,17.4128568 L31.1825059,17.4128568 L31.028222,17.421178 L28.4467338,17.421178 L28.4467338,15.0479441 L31.028222,15.0479441 Z M30.7874908,11.5173837 C30.8722727,11.5185056 30.9569137,11.524708 31.0409666,11.5359581 C31.5648888,11.6173854 31.9484748,12.0770656 31.9387524,12.6118431 C31.9484748,13.1466207 31.5648888,13.6063009 31.0409666,13.6877282 L30.9145294,13.7016091 L30.9145294,13.7016091 L30.7874908,13.7077314 L28.4467338,13.7077314 L28.4467338,11.5173837 L30.7874908,11.5173837 Z" id="Combined-Shape" fill="url(#linearGradient-1)" fill-rule="nonzero"></path><path d="M5.45861758,1 C2.99619109,1 1,3.01439876 1,5.49928556 L1,16.612478 C2.25022525,17.2240037 3.54859055,17.6226384 4.85686704,17.6226384 C6.39876432,17.6226384 7.24687862,16.6724876 7.24687862,15.395142 L7.24687862,10.1743133 L11.0825074,10.1743133 L11.0825074,15.395142 C11.0825074,17.4368946 9.83936157,19.0742974 5.57613592,19.0742974 C4.03410552,19.0748668 2.49763414,18.8877723 1,18.5170661 L1,28 L7.53996653,28 C8.72271074,28.0003788 9.85714134,27.5265156 10.6936006,26.6826948 C11.5300598,25.838874 12,24.6942465 12,23.5007142 L12,1 L5.45861758,1 Z" id="Path" fill="url(#linearGradient-2)" fill-rule="nonzero"></path><path d="M17.9591916,1 C15.4964481,1 13.5,3.01546533 13.5,5.50166781 L13.5,11.3900037 C14.6328527,10.4121883 16.5841916,9.80033886 19.7590113,9.94472388 C20.9395961,10.0206339 22.1113583,10.2004881 23.2609423,10.4822365 L23.2609423,12.390692 C22.2140304,11.8281366 21.0642425,11.4876008 19.8822091,11.3900037 C17.474897,11.2055911 16.0234295,12.390692 16.0234295,14.4992852 C16.0234295,16.6078784 17.4734809,17.7872611 19.8822091,17.6071372 C21.0636271,17.5062056 22.2127638,17.1658628 23.2609423,16.6064489 L23.2609423,18.5120453 C22.1113583,18.7937937 20.9395961,18.9736479 19.7590113,19.0495579 C16.5841916,19.1925134 14.6300206,18.5820935 13.5,17.6042781 L13.5,28 L20.0408084,28 C22.4980324,28 24.4921968,25.9932456 24.5,23.5126277 L24.5,1 L17.9591916,1 Z" id="Path" fill="url(#linearGradient-3)" fill-rule="nonzero"></path></g></g></g></g></svg> 