<?xml version="1.0" encoding="UTF-8"?> <svg xmlns="http://www.w3.org/2000/svg" xmlns:xlink="http://www.w3.org/1999/xlink" width="36px" height="23px" viewBox="0 0 36 23" version="1.1"><!-- Generator: Sketch 64 (93537) - https://sketch.com --><title>Element/Cross/Loghi/Circuiti/Color/Mastercard</title><desc>Created with Sketch.</desc><g id="Styleguide" stroke="none" stroke-width="1" fill="none" fill-rule="evenodd"><g id="Cross/Iconography" transform="translate(-349.000000, -2081.000000)"><g id="Cross/Element/Loghi/Circuiti/Color/MasterCard" transform="translate(347.000000, 2072.000000)"><g id="Group" transform="translate(2.000000, 9.000000)"><path d="M13.6907692,11.0769231 C13.6907692,7.54338462 15.3452308,4.39661538 17.9215385,2.36830769 C16.0372308,0.884923077 13.66,0 11.076,0 C4.95907692,0 -1.63971401e-14,4.95938462 -1.63971401e-14,11.0769231 C-1.63971401e-14,17.1944615 4.95907692,22.1538462 11.076,22.1538462 C13.66,22.1538462 16.0372308,21.2689231 17.9215385,19.7855385 C15.3452308,17.7572308 13.6907692,14.6104615 13.6907692,11.0769231" id="Fill-1" fill="#EB001B"></path><path d="M35.8431077,11.0769231 C35.8431077,17.1944615 30.8843385,22.1538462 24.7671077,22.1538462 C22.1828,22.1538462 19.8055692,21.2689231 17.9215692,19.7855385 C20.4978769,17.7572308 22.1523385,14.6104615 22.1523385,11.0769231 C22.1523385,7.54338462 20.4978769,4.39661538 17.9215692,2.36830769 C19.8055692,0.884923077 22.1828,0 24.7671077,0 C30.8843385,0 35.8431077,4.95938462 35.8431077,11.0769231" id="Fill-4" fill="#F79E1B"></path><path d="M17.9215385,19.7856 C20.4978462,17.7572923 22.1523077,14.6105231 22.1523077,11.0769846 C22.1523077,7.54344615 20.4978462,4.39636923 17.9215385,2.36836923 C15.3452308,4.39636923 13.6907692,7.54344615 13.6907692,11.0769846 C13.6907692,14.6105231 15.3452308,17.7572923 17.9215385,19.7856" id="Fill-7" fill="#FF5F00"></path><path d="M35.9999385,19.4685007 L35.9999385,18.4615077 L35.7778402,18.4615077 L35.5222751,19.1535 L35.2673184,18.4615077 L35.0452201,18.4615077 L35.0452201,19.4685007 L35.2016017,19.4685007 L35.2016017,18.70803 L35.4413461,19.3632602 L35.6038125,19.3632602 L35.8429485,18.7065883 L35.8429485,19.4685007 L35.9999385,19.4685007 Z M34.5937217,19.4685007 L34.5937217,18.6330641 L34.8778858,18.6330641 L34.8778858,18.4622285 L34.1537846,18.4622285 L34.1537846,18.6330641 L34.4385572,18.6330641 L34.4385572,19.4685007 L34.5937217,19.4685007 Z" id="Fill-9" fill="#F79E1B"></path></g></g></g></g></svg> 