<?xml version="1.0" encoding="UTF-8"?> <svg xmlns="http://www.w3.org/2000/svg" xmlns:xlink="http://www.w3.org/1999/xlink" width="37px" height="28px" viewBox="0 0 37 28" version="1.1"><title>SamsungPay_SVG</title><g id="SamsungPay_SVG" stroke="none" stroke-width="1" fill="none" fill-rule="evenodd"><path d="M10.5141429,21.28 L10.5141429,14.4568571 L11.6135714,14.4568571 L11.6135714,14.9582857 C11.7799252,14.7240146 12.0177795,14.5500225 12.2914286,14.4624286 C12.5234403,14.3864336 12.7660023,14.3475736 13.0101429,14.3472857 C13.6839454,14.3379414 14.3309902,14.6106294 14.7948571,15.0994286 C15.5252527,15.8497318 15.7437674,16.9605149 15.352,17.9315714 C15.1094948,18.5572951 14.6276097,19.0605676 14.013,19.33 C13.7142368,19.4590456 13.3912305,19.5223802 13.0658571,19.5157143 C12.8043425,19.5165352 12.5445122,19.4738577 12.297,19.3894286 C12.020392,19.3066211 11.776783,19.1390182 11.6005714,18.9102857 L11.6005714,21.2744286 L10.5141429,21.28 Z M12.9767143,15.3111429 C12.5870659,15.2989701 12.2102767,15.4513034 11.9385714,15.7308571 C11.6573571,16.0568461 11.5118002,16.4782299 11.5318571,16.9082857 C11.5069259,17.3509773 11.6487168,17.7869513 11.9292857,18.1302857 C12.203577,18.41572 12.5889233,18.5670091 12.9841429,18.5444286 C13.3684702,18.546371 13.7366114,18.3898438 14.0018571,18.1117143 C14.2951736,17.8014071 14.4528809,17.3870911 14.4401429,16.9602857 C14.4586318,16.5147677 14.3050234,16.0792112 14.0111429,15.7438571 C13.7413944,15.4622144 13.366656,15.3054567 12.9767143,15.3111429" id="Shape" fill="#000000" fill-rule="nonzero"></path><polygon id="Path" fill="#000000" fill-rule="nonzero" points="23.0758571 21.28 24.0044286 19.1275714 21.8761429 14.455 23.035 14.455 24.5485714 17.9631429 25.9432857 14.455 27.1077143 14.455 24.2142857 21.28"></polygon><path d="M20.1322857,19.4302857 L20.1322857,18.914 C19.9552146,19.1418235 19.7119235,19.3092078 19.4358571,19.3931429 C19.1882698,19.4772721 18.9284898,19.5199537 18.667,19.5194286 C18.3415964,19.5264441 18.0185163,19.4630951 17.7198571,19.3337143 C17.1041601,19.0658396 16.6217589,18.5620282 16.3808571,17.9352857 C15.9895875,16.964182 16.2080472,15.8536783 16.938,15.1031429 C17.4027839,14.6156708 18.0492213,14.3432389 18.7227143,14.351 C18.9668774,14.3510059 19.2094835,14.389873 19.4414286,14.4661429 C19.7153922,14.5541033 19.953734,14.7279756 20.1211429,14.962 L20.1211429,14.4568571 L21.2187143,14.4568571 L21.2187143,19.4321429 L20.1322857,19.4302857 Z M17.718,15.7438571 C17.4241195,16.0792112 17.270511,16.5147677 17.289,16.9602857 C17.2762619,17.3870911 17.4339693,17.8014071 17.7272857,18.1117143 C17.992022,18.3892449 18.3596043,18.5451481 18.7431429,18.5425714 C19.1384432,18.565658 19.5239939,18.4142887 19.798,18.1284286 C20.0793792,17.7855371 20.2212757,17.3492386 20.1954286,16.9064286 C20.2154855,16.4763727 20.0699286,16.0549889 19.7887143,15.729 C19.5178446,15.4493449 19.1415623,15.2969438 18.7524286,15.3092857 C18.3623122,15.3026925 17.9872253,15.459596 17.718,15.742" id="Shape" fill="#000000" fill-rule="nonzero"></path><polygon id="Path" fill="#000000" fill-rule="nonzero" points="28.209 11.2551429 28.1514286 7.94942857 29.1951429 7.94942857 29.1951429 12.1187143 27.6945714 12.1187143 26.6564286 8.696 26.6304286 8.696 26.6898571 12.1187143 25.6554286 12.1187143 25.6554286 7.94942857 27.2172857 7.94942857 28.1867143 11.2551429"></polygon><polygon id="Path" fill="#000000" fill-rule="nonzero" points="9.26057143 8.33757143 8.683 12.1595714 7.54828571 12.1595714 8.32642857 7.94942857 10.2021429 7.94942857 10.9802857 12.1595714 9.84557143 12.1595714 9.28471429 8.33757143"></polygon><polygon id="Path" fill="#000000" fill-rule="nonzero" points="14.1708571 11.1678571 14.6908571 7.94942857 16.4068571 7.94942857 16.5015714 12.1595714 15.4467143 12.1595714 15.4188571 8.37285714 15.3965714 8.37285714 14.6945714 12.1595714 13.6267143 12.1595714 12.921 8.37285714 12.8968571 8.37285714 12.8708571 12.1595714 11.8197143 12.1595714 11.9144286 7.94942857 13.6322857 7.94942857 14.1485714 11.1678571"></polygon><path d="M22.9997143,11.5262857 C23.1925294,11.5434539 23.3675315,11.4132012 23.4064286,11.2235714 C23.4134956,11.1700162 23.4165993,11.1160123 23.4157143,11.062 L23.4157143,7.95685714 L24.4835714,7.95685714 L24.4835714,10.9654286 C24.4835714,11.0452857 24.4742857,11.2031429 24.4705714,11.2458571 C24.3981429,12.0295714 23.7741429,12.2821429 22.9997143,12.2821429 C22.2252857,12.2821429 21.605,12.0295714 21.5325714,11.2458571 C21.5325714,11.2031429 21.5214286,11.0452857 21.5232857,10.9654286 L21.5232857,7.95685714 L22.5892857,7.95685714 L22.5892857,11.0694286 C22.5844354,11.1231765 22.5844354,11.1772521 22.5892857,11.231 C22.6241265,11.4215567 22.7995667,11.553339 22.9922857,11.5337143" id="Path" fill="#000000" fill-rule="nonzero"></path><path d="M5.77471429,10.9691429 C5.80324095,11.0711867 5.80324095,11.179099 5.77471429,11.2811429 C5.73137561,11.4681768 5.55263912,11.59136 5.36242857,11.5652857 C5.25359383,11.5802004 5.14373949,11.5461736 5.0623908,11.4723506 C4.98104211,11.3985275 4.93654438,11.2924815 4.94085714,11.1827143 L4.94085714,10.7741429 L3.81357143,10.7741429 L3.81357143,11.0991429 C3.81357143,12.0388571 4.55642857,12.3211429 5.342,12.3211429 C6.12757143,12.3211429 6.73114286,12.063 6.82771429,11.361 C6.86581165,11.1322899 6.86581165,10.8988529 6.82771429,10.6701429 C6.642,9.78614286 5.05042857,9.52614286 4.93157143,9.03214286 C4.9150373,8.96003085 4.9150373,8.88511201 4.93157143,8.813 C4.96375828,8.63090657 5.13233922,8.50548886 5.316,8.527 C5.4199447,8.52071446 5.52175405,8.55835248 5.59661382,8.63074048 C5.6714736,8.70312847 5.71250752,8.80361719 5.70971429,8.90771429 L5.70971429,9.17142857 L6.759,9.17142857 L6.759,8.87428571 C6.759,7.95685714 5.93442857,7.81385714 5.33828571,7.81385714 C4.59542857,7.81385714 3.97885714,8.06271429 3.86557143,8.74242857 C3.83448496,8.93025328 3.83763084,9.12215232 3.87485714,9.30885714 C4.06057143,10.1705714 5.55742857,10.4231429 5.77285714,10.9617143" id="Path" fill="#000000" fill-rule="nonzero"></path><path d="M19.4655714,10.9635714 C19.4976154,11.0634121 19.500834,11.1702689 19.4748571,11.2718571 C19.4414286,11.4111429 19.3448571,11.5485714 19.0681429,11.5485714 C18.961576,11.5625476 18.8541799,11.5296767 18.7736918,11.4584483 C18.6932037,11.3872199 18.647516,11.2846184 18.6484286,11.1771429 L18.6484286,10.7704286 L17.5341429,10.7704286 L17.5341429,11.0935714 C17.5341429,12.0221429 18.2677143,12.3044286 19.0514286,12.3044286 C19.7942857,12.3044286 20.4238571,12.0481429 20.5241429,11.3517143 C20.5629408,11.1243096 20.5629408,10.8919761 20.5241429,10.6645714 C20.3477143,9.79357143 18.7654286,9.53542857 18.6502857,9.04514286 C18.6356777,8.97345086 18.6356777,8.89954914 18.6502857,8.82785714 C18.6833031,8.64856 18.8499768,8.52579061 19.031,8.54742857 C19.1336999,8.53756757 19.2356041,8.57290967 19.3101451,8.64424083 C19.3846862,8.71557198 19.4244767,8.81582291 19.4191429,8.91885714 L19.4191429,9.17885714 L20.4572857,9.17885714 L20.4572857,8.88542857 C20.4572857,7.97728571 19.642,7.83614286 19.0551429,7.83614286 C18.3122857,7.83614286 17.705,8.07757143 17.5972857,8.76471429 C17.5611098,8.94901009 17.5642741,9.13886923 17.6065714,9.32185714 C17.7922857,10.1761429 19.2668571,10.4212857 19.4822857,10.9617143" id="Path" fill="#000000" fill-rule="nonzero"></path><path d="M31.784,11.4854286 C31.9848392,11.5100393 32.1711434,11.3769649 32.213,11.179 C32.2210011,11.1267846 32.2241098,11.0739362 32.2222857,11.0211429 L32.2222857,10.412 L31.7914286,10.412 L31.7914286,9.79357143 L33.2771429,9.79357143 L33.2771429,10.9282857 C33.2771429,11.0081429 33.2771429,11.0657143 33.2641429,11.205 C33.1917143,11.9701429 32.5212857,12.245 31.7784286,12.245 C31.0355714,12.245 30.3725714,11.9701429 30.302,11.205 C30.2910781,11.1131794 30.2861153,11.0207478 30.2871429,10.9282857 L30.2871429,9.15657143 C30.2884718,9.06468857 30.294671,8.97294077 30.3057143,8.88171429 C30.3985714,8.09057143 31.0337143,7.84171429 31.7784286,7.84171429 C32.5231429,7.84171429 33.1842857,8.08685714 33.2641429,8.88171429 C33.2701226,8.97323576 33.2701226,9.06504995 33.2641429,9.15657143 L33.2641429,9.29585714 L32.2037143,9.29585714 L32.2037143,9.06 C32.2037558,9.00587998 32.1994083,8.95184573 32.1907143,8.89842857 C32.1498174,8.70334358 31.9672004,8.57140886 31.7691429,8.59385714 C31.5726923,8.57589559 31.3932741,8.70609286 31.3494286,8.89842857 C31.3375974,8.96397208 31.3326182,9.03056874 31.3345714,9.09714286 L31.3345714,11.0248571 C31.3315713,11.0774334 31.3315713,11.130138 31.3345714,11.1827143 C31.3781029,11.3812299 31.5655781,11.5139912 31.7672857,11.4891429" id="Path" fill="#000000" fill-rule="nonzero"></path><path d="M29.7585405,27.0018571 L7.41042847,27.0018571 C3.87102131,26.9977417 1.00307626,24.1206154 1,20.5709068 L1,7.43094127 C1.00410163,3.88196144 3.87174693,1.00597071 7.41042847,1.00185714 L29.7585405,1.00185714 C33.2975243,1.00596853 36.1657032,3.88165959 36.1708297,7.43094127 L36.1708297,20.572773 C36.1657032,24.1220547 33.2975243,26.9977458 29.7585405,27.0018571 Z M7.41042847,1.80805869 C4.31437553,1.81113809 1.80443139,4.32588279 1.79827977,7.43094127 L1.79827977,20.572773 C1.80135507,23.6803212 4.31189887,26.199006 7.41042847,26.2031204 L29.7585405,26.2031204 C32.8573723,26.1990081 35.3684496,23.6806231 35.37255,20.572773 L35.37255,7.43094127 C35.3684475,4.32339431 32.8570713,1.80554432 29.7585405,1.80246007 L7.41042847,1.80805869 Z" id="Shape" fill="#000000" fill-rule="nonzero"></path></g></svg> 