<?xml version="1.0" encoding="UTF-8"?> <svg xmlns="http://www.w3.org/2000/svg" xmlns:xlink="http://www.w3.org/1999/xlink" width="40px" height="25px" viewBox="0 0 40 25" version="1.1"><!-- Generator: Sketch 64 (93537) - https://sketch.com --><title>Element/Cross/Loghi/Circuiti/Color/UnionPay</title><desc>Created with Sketch.</desc><g id="Styleguide" stroke="none" stroke-width="1" fill="none" fill-rule="evenodd"><g id="Cross/Iconography" transform="translate(-543.000000, -2080.000000)"><g id="Cross/Element/Loghi/Circuiti/Color/UnionPay" transform="translate(543.000000, 2072.000000)"><g id="Group" transform="translate(0.495464, 8.419037)"><path d="M16.6029317,-1.42108547e-14 L16.597798,0.00342245989 L26.3518087,0.00342245989 C26.5248122,0.00342245989 26.689371,0.0211315511 26.844197,0.0548298181 C25.6734977,0.294608425 24.608862,1.28506578 24.3308461,2.4744385 L24.3308461,2.4744385 L19.7909531,21.9704813 C19.5057719,23.1619712 20.1090775,24.1567434 21.1768809,24.3909948 C21.0042017,24.4249911 20.8288497,24.4432086 20.653413,24.4432086 L10.8994023,24.4432086 C9.53041831,24.4432086 8.69020441,23.3360428 9.01704933,21.9704813 L13.5569424,2.4744385 C13.8769424,1.10545455 15.2407926,-1.42108547e-14 16.6029317,-1.42108547e-14 Z" id="Combined-Shape" fill="#005699" fill-rule="nonzero"></path><path d="M7.65319906,1.13686838e-13 L7.65319906,0.00342245989 L16.5007844,0.00205957219 C15.1732525,0.0554374332 13.8689424,1.13967914 13.5569424,2.4744385 L13.5569424,2.4744385 L9.01704933,21.9704813 C8.69020441,23.3360428 9.53041831,24.4432086 10.8994023,24.4432086 L10.8994023,24.4432086 L1.9582258,24.4432086 C0.58924184,24.4432086 -0.250972063,23.3360428 0.0673167066,21.9704813 L4.61063221,2.4744385 C4.92892098,1.10545455 6.28934879,1.13686838e-13 7.65319906,1.13686838e-13 Z" id="Combined-Shape" fill="#DB3832" fill-rule="nonzero"></path><path d="M27.3717017,0.00342245989 L37.1257124,0.00342245989 C38.4946964,0.00342245989 39.3349103,1.11229947 39.0080654,2.47786096 L34.473306,21.9704813 C34.153306,23.3394652 32.791167,24.4432086 31.4273167,24.4432086 L21.673306,24.4432086 C20.3043221,24.4432086 19.4641082,23.3360428 19.7909531,21.9704813 L24.3308461,2.4744385 C24.6508461,1.10545455 26.0129852,-1.42108547e-14 27.3785467,-1.42108547e-14 L27.3717017,0.00342245989 Z" id="Path" fill="#00868C" fill-rule="nonzero"></path><path d="M19.8149103,15.3411765 L19.6437873,16.0838503 L18.3963007,16.0838503 L18.2440012,16.7152941 L19.5120226,16.7152941 L19.3272098,17.4836364 L18.0591884,17.4836364 L17.8127713,18.5103743 C17.7836803,18.6250267 18.1242151,18.6404278 18.2457124,18.6404278 L18.8771563,18.5565775 L18.6735199,19.4002139 L17.2395092,19.4002139 C17.1285248,19.3996901 17.0180797,19.384734 16.9109531,19.3557219 C16.8113059,19.3342702 16.7251084,19.2722575 16.6730921,19.1845989 C16.5841341,19.1004212 16.5469368,18.975125 16.575552,18.8560428 L16.9023969,17.495615 L16.1836803,17.495615 L16.3719156,16.7135829 L17.0803648,16.7135829 L17.2309531,16.082139 L16.5259263,16.082139 L16.7073167,15.3411765 L19.8149103,15.3411765 Z M24.5652846,13.588877 L24.0912739,15.5841711 C24.0424653,15.8169723 23.9582038,16.0409 23.8414344,16.2481283 C23.7743196,16.3636489 23.6766119,16.4583958 23.5590814,16.5219251 C23.4361696,16.5920324 23.3007127,16.6373785 23.1603648,16.6554011 C23.04229,16.6656684 22.8643221,16.6690909 22.6196162,16.6725134 L20.9254985,16.6725134 L20.5473167,18.2519786 C20.5096696,18.4077005 20.4942686,18.4812834 20.5250707,18.5223529 C20.5660032,18.5751414 20.6294036,18.6055736 20.6961937,18.604492 L21.4371563,18.5326203 L21.2352311,19.3985027 L20.3967285,19.3985027 C20.1331991,19.3985027 19.9381188,19.3985027 19.8029317,19.3831016 C19.6798963,19.3929594 19.5565661,19.3680562 19.4469959,19.3112299 C19.3631456,19.244492 19.239937,19.155508 19.2365146,19.0631016 C19.2496722,18.9205855 19.2736993,18.779283 19.3083862,18.6404278 L20.5130921,13.5905882 L21.6014344,13.5905882 L21.4765146,14.1381818 C21.64745,13.9929766 21.836036,13.8699357 22.037798,13.7719786 C22.2899003,13.6937774 22.5480335,13.6365416 22.8095627,13.6008556 L24.5652846,13.588877 Z M32.6970493,15.1375401 L32.5173702,15.895615 L31.2801509,15.895615 L31.1312739,16.513369 L32.3702044,16.513369 L32.21106,17.1893048 L30.8728782,17.1893048 L30.6504183,17.473369 L31.1945894,17.473369 L31.3879584,18.328984 C31.3920031,18.3893909 31.4101733,18.4480045 31.4410065,18.500107 C31.5324128,18.535948 31.6304597,18.5517055 31.7284932,18.5463102 L31.8996162,18.5463102 L31.7062472,19.3762567 L31.2869959,19.3762567 C31.2236803,19.3762567 31.1261402,19.3762567 30.9943755,19.3608556 C30.8844448,19.3400719 30.7793856,19.2988608 30.6846429,19.2393583 C30.5662214,19.1819169 30.4787385,19.0756877 30.4450707,18.9484492 L30.2585467,18.1013904 L29.7023969,18.9347594 C29.5178648,19.2341545 29.1862207,19.4107697 28.8348033,19.3967914 L27.9791884,19.3967914 L28.1503114,18.6609626 L28.4788675,18.6609626 C28.5613821,18.6573374 28.6418039,18.6338566 28.713306,18.5925134 C28.7849233,18.5626627 28.8449558,18.5104344 28.884429,18.4436364 L29.6852846,17.1893048 L28.504536,17.1893048 L28.6619691,16.513369 L30.0018622,16.513369 L30.1524504,15.895615 L28.8262472,15.895615 L29.0059263,15.1375401 L32.6970493,15.1375401 Z M26.964429,13.5905882 L26.8737338,13.9995722 C27.0477987,13.868102 27.2427499,13.7668662 27.4504183,13.700107 C27.7361937,13.6248128 29.4080654,13.5957219 29.4080654,13.5957219 L29.2146964,14.3965775 L28.824536,14.3931551 L27.9038942,18.328984 L28.222183,18.328984 L28.028814,19.1452406 L27.7105253,19.1452406 L27.648921,19.3916578 L26.517798,19.3916578 L26.5759798,19.1418182 L24.2829317,19.1418182 L24.4626108,18.388877 L24.6953381,18.388877 L25.6313809,14.3965775 L25.8161937,13.5905882 L26.964429,13.5905882 Z M23.8842151,16.8128342 L23.8157659,17.2919786 C23.7984882,17.4274454 23.7385564,17.5539016 23.6446429,17.6530481 C23.4922174,17.8000169 23.2841982,17.8747544 23.0730921,17.8583957 L22.4724504,17.8806417 L22.4981188,18.4231016 C22.4981188,18.5788235 22.5408996,18.5634225 22.566568,18.5942246 C22.5902886,18.6162932 22.619091,18.6321639 22.6504183,18.6404278 L22.8403648,18.6318717 L23.4119156,18.5976471 L23.2253916,19.3916578 L22.5648568,19.3916578 C22.0994023,19.3916578 21.7571563,19.3779679 21.6390814,19.2941176 C21.5365328,19.2248171 21.4816305,19.1037674 21.4970493,18.9809626 L21.4080654,16.8675936 L22.462183,16.8675936 L22.4758729,17.2988235 L22.7274237,17.2988235 C22.7900902,17.3044564 22.853151,17.2938481 22.9105253,17.2680214 C22.9439819,17.2387687 22.9663412,17.1988846 22.9738408,17.1550802 L23.0542686,16.8128342 L23.8842151,16.8128342 Z M27.0003648,17.4528342 L26.0797231,17.4528342 L25.8658194,18.3375401 L26.793306,18.3375401 L27.0003648,17.4528342 Z M26.435659,15.9007487 L26.1926643,16.9445989 C26.3601485,16.8546422 26.5347045,16.7785243 26.7145894,16.7170053 C26.8683815,16.6796009 27.0244279,16.6521641 27.1817552,16.6348663 L27.3528782,15.9024599 L26.435659,15.9007487 Z M22.9464611,15.6081283 L21.1667819,15.6081283 L21.0795092,15.9674866 L22.6196162,15.9674866 C22.6970466,15.9607712 22.774913,15.9607712 22.8523434,15.9674866 L22.9464611,15.6081283 Z M26.7898836,14.3931551 L26.5537338,15.404492 C26.7203364,15.3252424 26.8918046,15.2566551 27.0671028,15.1991444 C27.220809,15.1642207 27.3770043,15.1413349 27.5342686,15.1306952 L27.7053916,14.3982888 L26.7898836,14.3931551 Z M23.2459263,14.4171123 L21.4508461,14.4171123 L21.2437873,15.2847059 C21.504697,15.0619236 21.8221378,14.9156402 22.1610065,14.8620321 C22.2944825,14.8380749 23.1449638,14.8449198 23.1449638,14.8449198 L23.2459263,14.4171123 Z M18.9216483,13.588877 L18.7180119,14.0098396 L19.9945894,14.0098396 L19.8080654,14.7833155 L18.0660333,14.7833155 L17.8863541,14.9544385 C17.8127713,15.0314439 17.7819691,14.9989305 17.6810065,15.0536898 C17.5074275,15.1494173 17.3128051,15.2005718 17.1145894,15.2025668 L16.5567285,15.2025668 L16.7364076,14.4581818 L16.9075306,14.4581818 C17.0057364,14.4677024 17.1047399,14.4517911 17.1950172,14.4119786 C17.2708912,14.3474083 17.329668,14.2651208 17.3661402,14.1724064 L17.6502044,13.588877 L18.9216483,13.588877 Z M36.0493488,8.62631016 L36.0972632,8.68106952 L33.2942686,13.6077005 L32.8253916,14.4256684 C32.6704966,14.7096571 32.3847014,14.8940899 32.0676819,14.9222315 L31.9475306,14.9253476 L31.1826108,14.935615 L31.3537338,14.1672727 L31.5590814,14.1672727 C31.6200805,14.1706352 31.6811429,14.161912 31.7387606,14.1416043 C31.7653552,14.129413 31.7888798,14.1117557 31.8079016,14.0899608 L31.8328782,14.0543316 L32.1032525,13.6265241 L32.2323334,13.4248663 C32.5079584,12.9835294 32.6232525,12.7229947 32.9691349,12.1480214 C32.8989745,11.4241711 32.8681723,11.1828877 32.8082793,10.7071658 C32.7757659,10.4196791 32.7295627,10.1253476 32.6970493,9.83786096 C32.6784521,9.64032523 32.6532151,9.4434993 32.6213869,9.2477165 L32.5687071,8.95486631 L32.5761937,8.92149733 L32.5772632,8.88812834 L32.6234664,8.85048128 C32.900277,8.81601162 33.1758164,8.77228462 33.4496227,8.71938156 L33.8589745,8.63315508 L33.9120226,8.68791444 L33.9958729,10.3187166 L33.9955948,10.4099198 L34.0588492,10.2730255 C34.3134817,9.72452177 34.3436967,9.78954597 34.6574541,9.08680341 L34.7351242,8.91037433 L34.7351242,8.88128342 L34.7796162,8.84363636 C35.3357659,8.77005348 35.4452846,8.75122995 36.0493488,8.62631016 Z M30.7086001,13.5940107 L30.72229,14.0526203 C30.72229,14.1262032 30.7804718,14.1638503 30.9242151,14.1672727 L31.1312739,14.1672727 L30.9464611,14.9253476 L30.2807926,14.9253476 C29.7041082,14.9664171 29.4867819,14.7182888 29.5004718,14.4410695 L29.4782258,13.5940107 L30.7086001,13.5940107 Z M32.0108461,8.68791444 L32.0296696,8.73754011 C31.9167285,9.19957219 31.8037873,9.66160428 31.697691,10.1253476 C31.4922008,11.0194652 31.4031812,11.503779 31.3238675,11.9737136 L31.3023969,12.1018182 L31.2493488,12.1463102 C30.7297766,12.1388235 30.5364344,12.1378877 30.1282258,12.1549666 L29.9385467,12.1634225 L29.9043221,12.1206417 C29.9231456,12.0487701 29.9402579,11.9768984 29.9590814,11.9050267 C29.7812146,12.0742866 29.5528285,12.1806664 29.308814,12.2079144 C29.0745767,12.2222442 28.8402212,12.1818179 28.6243221,12.0898396 C27.8628247,11.7903743 27.9843221,10.9587166 28.0904183,10.5018182 C28.1759545,10.0241979 28.4045034,9.58380866 28.7458194,9.23893048 C29.2694557,8.75636364 29.8854985,8.62459893 30.1490279,8.7255615 C30.3288744,8.79245358 30.4796265,8.92019931 30.5751242,9.08663102 L30.5879584,9.01540107 L30.595659,8.9428877 L30.6418622,8.90524064 C31.235659,8.82481283 31.3982258,8.79914439 32.0108461,8.68791444 Z M17.959937,8.64855615 C18.428814,8.64855615 18.8788675,8.75636364 19.135552,9.08320856 C19.3049638,9.2971123 19.4350172,9.64962567 19.2638942,10.4059893 C19.1770427,10.8242564 18.9923174,11.2159913 18.7248568,11.5490909 C18.3141955,11.9678009 17.7450076,12.1923657 17.1590814,12.1668449 C16.8880025,12.1701719 16.6185154,12.1249676 16.3633595,12.033369 C15.6018622,11.7321925 15.7250707,10.8936898 15.8294557,10.433369 C15.9147958,9.95318876 16.1432476,9.51000427 16.4848568,9.16192513 C16.894947,8.81217835 17.4213149,8.62898766 17.959937,8.64855615 Z M5.3413274,6.21347594 C5.3584397,6.2340107 5.60656804,6.25112299 6.98924184,6.2340107 C6.98435346,6.24800491 6.98035265,6.26229352 6.97726323,6.27679144 C6.85234344,6.65668449 6.14218302,9.50245989 6.14047179,9.50245989 C6.13893168,9.50245989 6.02927606,10.195508 6.00736034,10.3341176 L6.00357339,10.3580749 L6.01212954,10.500107 C6.05662152,10.9193583 6.31672847,11.140107 6.76164826,11.140107 C7.02346776,11.1445012 7.2784915,11.0566664 7.48207606,10.8919786 C7.83972312,10.6062032 7.94581938,10.151016 8.09127393,9.52299465 C8.09298516,9.52128342 8.77063221,6.39486631 8.80827927,6.22374332 C8.90239692,6.2459893 9.1984397,6.25796791 10.197798,6.25283422 C10.1875306,6.26481283 10.1875306,6.27508021 10.1875306,6.29561497 C10.0692504,6.66524064 9.38953343,9.4052018 9.33534533,9.62380729 L9.33191564,9.63764706 L9.2497766,9.95593583 C9.07351992,10.5736898 8.87330601,11.2752941 8.12036483,11.7236364 C7.57656522,12.0112719 6.96760572,12.1533428 6.3526643,12.1360428 C5.82047179,12.1360428 4.87587286,12.0487701 4.54731671,11.4686631 C4.45645302,11.3024606 4.4037876,11.118741 4.39237326,10.9308227 L4.39159478,10.7893048 L4.50966965,9.90117647 L4.57298516,9.62909091 L5.29854665,6.42053476 C5.29854665,6.42053476 5.3413274,6.24256684 5.3413274,6.21347594 Z M21.3875306,8.59037433 L21.4371563,8.64684492 L21.3464611,8.98909091 C21.4474237,8.9257754 21.5500975,8.86245989 21.6561937,8.8059893 C21.9025794,8.69143086 22.1700031,8.62909026 22.4416483,8.6228877 C22.7103114,8.6228877 23.0063541,8.69818182 23.1261402,9.00791444 C23.2442151,9.28513369 23.1654985,9.62737968 23.0114878,10.3016043 L22.9344825,10.6438503 C22.7736269,11.3950802 22.7479584,11.5336898 22.6623969,12.0453476 L22.6059263,12.0949733 L22.2865413,12.0952674 C22.0047499,12.0961497 21.8016483,12.0996791 21.3704183,12.1137968 L21.3481723,12.0761497 C21.3995092,11.8536898 21.4525573,11.6397861 21.5038942,11.4190374 L21.5723434,11.1229947 C21.6784397,10.6558289 21.7828247,10.1202139 21.7948033,9.9542246 C21.8050707,9.85497326 21.8375841,9.61197861 21.5552311,9.61197861 C21.4257135,9.62454864 21.3000294,9.66295213 21.1856055,9.72491979 C21.1171563,9.9713369 20.9785467,10.6660963 20.9100975,10.9809626 C20.7714878,11.6500535 20.7595092,11.7253476 20.6961937,12.0539037 L20.6551242,12.0983957 L20.3269424,12.0986898 C20.0367285,12.0995722 19.8268889,12.1031016 19.395659,12.1172193 L19.3682793,12.0727273 C19.4641082,11.6757219 19.5616483,11.2770053 19.6540547,10.8748663 C19.8170548,10.2079462 19.9404787,9.53197157 20.0236803,8.85048128 L20.0681723,8.81112299 C20.6345894,8.73582888 20.7714878,8.71700535 21.3875306,8.59037433 Z M11.6369424,8.59037433 L11.686568,8.64684492 L11.5941616,8.98909091 C11.6968354,8.9257754 11.797798,8.86245989 11.9056055,8.8059893 C12.1519912,8.69143086 12.4194149,8.62909026 12.69106,8.6228877 C12.9597231,8.6228877 13.2557659,8.69818182 13.375552,9.00791444 C13.4953381,9.28513369 13.4166215,9.62737968 13.2626108,10.3016043 L13.1838942,10.6438503 C13.0247499,11.3950802 12.9990814,11.5336898 12.9135199,12.0453476 L12.8553381,12.0949733 L12.5349905,12.0952674 C12.2525573,12.0961497 12.0497766,12.0996791 11.6198301,12.1137968 L11.5958729,12.0761497 C11.6472098,11.8536898 11.7019691,11.6397861 11.7515948,11.4190374 L11.820044,11.1229947 C11.9278515,10.6558289 12.0322365,10.1202139 12.0442151,9.9542246 C12.0544825,9.85497326 12.0869959,9.61197861 11.8046429,9.61197861 C11.6745388,9.62432378 11.5482512,9.66273383 11.433306,9.72491979 C11.3648568,9.9713369 11.2262472,10.6660963 11.1595092,10.9809626 C11.0191884,11.6500535 11.008921,11.7253476 10.9456055,12.0539037 L10.904536,12.0983957 L10.5719959,12.0986898 C10.2802579,12.0995722 10.0758729,12.1031016 9.64335949,12.1172193 L9.61597981,12.0727273 C9.71180869,11.6757219 9.80934879,11.2770053 9.90175521,10.8748663 C10.0647553,10.2079462 10.1881793,9.53197157 10.2713809,8.85048128 L10.3158729,8.81112299 C10.8840012,8.73582888 11.0191884,8.71700535 11.6369424,8.59037433 Z M15.4683862,9.33989305 L15.488921,9.39122995 C15.4307392,9.62566845 15.3742686,9.86010695 15.317798,10.0928342 L15.146675,10.7944385 C15.035445,11.288984 14.9926643,11.4789305 14.9669959,11.602139 C14.9413274,11.7253476 14.9344825,11.7972193 14.8917017,12.0539037 L14.8643221,12.0761497 L14.848921,12.0949733 L14.1781188,12.0949733 C13.993306,12.0949733 13.8136269,12.1052406 13.5381188,12.1172193 L13.5227178,12.0949733 L13.5056055,12.0727273 C13.5445398,11.9078157 13.5954411,11.745961 13.6579049,11.5884492 C13.7159421,11.4288977 13.7622681,11.2653268 13.7965146,11.0990374 C13.8820761,10.7259893 13.9351242,10.4590374 13.9676376,10.2314439 C14.0001509,10.0038503 14.0309531,9.8173262 14.0583327,9.6 L14.0805787,9.58117647 L14.104536,9.56064171 C14.3988675,9.52128342 14.5853916,9.49390374 14.7753381,9.4631016 C14.9652846,9.43229947 15.1620761,9.39636364 15.4683862,9.33989305 Z M24.7894557,6.20491979 C24.9523648,6.21929412 25.3344026,6.22919643 26.2472188,6.2221051 L26.45106,6.22032086 L26.8583327,6.21176471 C27.6899905,6.22716578 28.4035734,6.23229947 28.7646429,6.72684492 C28.9001996,6.92858896 28.9673841,7.1685336 28.9563007,7.4113369 C28.9541568,7.59114344 28.9323516,7.77017604 28.8912739,7.94524064 C28.7653743,8.54978679 28.4257541,9.08868331 27.9346964,9.4631016 C27.2868532,9.93368984 26.4736506,9.97290553 25.7283892,9.9761735 L25.4448568,9.97647059 C25.3989194,10.0059736 25.359354,10.0443753 25.3284932,10.0894118 C25.3165146,10.113369 25.1351242,10.8817112 25.133413,10.8834225 C25.1317017,10.8851337 24.9160868,11.9341176 24.8784397,12.1052406 C24.7322518,12.0925286 24.3927734,12.0916206 23.6037948,12.1025166 L23.4136269,12.1052406 L24.3667819,8.1831016 L24.7449638,6.42053476 C24.7449638,6.42053476 24.7723434,6.2802139 24.7894557,6.20491979 Z M30.0549103,9.49561497 C29.6664611,9.49561497 29.5141616,9.96962567 29.3841082,10.5326203 C29.3367304,10.7143446 29.3108845,10.9010094 29.3071028,11.0887701 C29.3122365,11.4464171 29.5552311,11.4464171 29.5928782,11.4464171 C29.7771621,11.4374343 29.9497137,11.3533231 30.0703114,11.2136898 C30.126402,11.1287969 30.170727,11.0366929 30.2020761,10.939893 C30.2448568,10.7687701 30.2944825,10.5976471 30.335552,10.4265241 C30.3595092,10.3170053 30.3766215,10.2365775 30.3971563,10.1458824 C30.4313809,9.74203209 30.3081723,9.49561497 30.0549103,9.49561497 Z M17.788814,9.42374332 C17.4003648,9.42374332 17.2480654,9.90117647 17.1180119,10.4693048 C17.0692743,10.6519661 17.0428429,10.8398587 17.0392953,11.028877 C17.044429,11.3899465 17.2874237,11.3899465 17.3267819,11.3899465 C17.479468,11.3765788 17.6157864,11.2888998 17.6912739,11.155508 C17.7957116,10.9669077 17.8770618,10.7667081 17.93376,10.5592439 L17.982183,10.3495187 C18.1053916,9.77625668 18.086568,9.42374332 17.788814,9.42374332 Z M15.4769424,8.38502674 C15.7524504,8.54759358 15.7113809,8.86074866 15.3879584,9.08320856 C15.0628247,9.30909091 14.573413,9.35871658 14.2996162,9.19786096 C14.0258194,9.03700535 14.0668889,8.72213904 14.3920226,8.49796791 C14.7171563,8.27379679 15.2014344,8.22245989 15.4769424,8.38502674 Z M25.9975841,7.07251337 L25.9975841,7.1426738 L25.9856055,7.23165775 C25.9872098,7.22684492 25.6338675,8.76965909 25.5896935,8.96252966 L25.5851777,8.98224599 L25.5646429,9.07294118 L25.7871028,9.07294118 C26.1068053,9.0956885 26.4274914,9.04536186 26.7248568,8.9257754 C27.0665513,8.74660096 27.3101335,8.42391734 27.388814,8.04620321 C27.4863541,7.62695187 27.3477445,7.29839572 27.0140547,7.16663102 C26.9924932,7.1620107 26.3166942,7.10194652 26.1817501,7.08997989 L26.1584397,7.08791444 L25.9975841,7.07251337 Z" id="Combined-Shape" fill="#FFFFFF"></path></g></g></g></g></svg> 