<?xml version="1.0" encoding="UTF-8"?> <svg xmlns="http://www.w3.org/2000/svg" xmlns:xlink="http://www.w3.org/1999/xlink" width="30px" height="32px" viewBox="0 0 30 32" version="1.1"><!-- Generator: Sketch 64 (93537) - https://sketch.com --><title>Element/Cross/Loghi/Circuiti/Color/Vpay</title><desc>Created with Sketch.</desc><g id="Styleguide" stroke="none" stroke-width="1" fill="none" fill-rule="evenodd"><g id="Cross/Iconography" transform="translate(-744.000000, -2076.000000)" fill="#1C3378" fill-rule="nonzero"><g id="Cross/Element/Loghi/Circuiti/Color/Vpay" transform="translate(739.000000, 2072.000000)"><path d="M34.5374708,4 L34.5374708,36 L5,36 L5,4 L34.5374708,4 Z M14.1345703,26.9449343 C13.4125724,26.9449343 12.8818136,26.9986569 12.4993281,27.071715 L12.4993281,27.071715 L12.4993281,33.0991169 L13.5586875,33.0991169 L13.5586875,30.7955982 C13.6983623,30.8213952 13.883161,30.8321248 14.0808477,30.8321248 C14.8372275,30.8321248 15.505509,30.6236887 15.9309688,30.1810392 C16.2618888,29.8522701 16.4359381,29.373089 16.4359381,28.7950603 C16.4359381,28.2213284 16.2103172,27.7421425 15.8622062,27.4434572 C15.4883193,27.116839 14.9167321,26.9449343 14.1345703,26.9449343 Z M20.4155273,26.9900645 L19.0510362,26.9900645 L17.1751269,33.099112 L18.2774668,33.099112 L18.7824361,31.3671792 L20.6411482,31.3671792 L21.1719071,33.099112 L22.3193647,33.099112 L20.4155273,26.9900645 Z M23.9331203,26.9900645 L22.719046,26.9900645 L24.5691671,30.5506305 L24.5691671,33.099112 L25.6370978,33.099112 L25.6370978,30.5248484 L27.5839193,26.9900645 L26.3762866,26.9900645 L25.6714784,28.5565403 C25.4737905,29.0013456 25.3061827,29.3816814 25.1579155,29.7727642 L25.1579155,29.7727642 L25.142899,29.7727642 C24.9838823,29.3537472 24.8377672,29.0120889 24.6379284,28.5565403 L24.6379284,28.5565403 L23.9331203,26.9900645 Z M19.7021218,27.8775205 C19.790225,28.2320729 19.8847697,28.6489391 19.998655,29.0206813 L19.998655,29.0206813 L20.4585016,30.5248484 L18.9564581,30.5248484 L19.4077111,29.0206813 C19.5108543,28.6596823 19.5989513,28.2320729 19.6849036,27.8775205 L19.6849036,27.8775205 Z M14.1753986,27.7958427 C14.9167321,27.7958427 15.3679851,28.1589925 15.3679851,28.8380123 C15.3679851,29.5535637 14.8802068,29.9639884 14.0808477,29.9639884 C13.8638192,29.9639884 13.6897637,29.9532612 13.5586875,29.9167358 L13.5586875,29.9167358 L13.5586875,27.8517099 C13.672574,27.8237868 13.883161,27.7958427 14.1753986,27.7958427 Z M33.9666518,4.90755857 L5.90755857,4.90755857 L5.90755857,24.9494601 L33.9666518,24.9494601 L33.9666518,4.90755857 Z M16.7561099,8.37711487 C17.4931528,8.37711487 18.1571325,8.86703965 18.3247416,9.71367298 L19.757989,17.3182889 L23.2949239,8.37711487 L26.8662381,8.37711487 L21.3610014,21.5192035 L17.7638989,21.5192035 L15.054256,11.0287389 C14.89095,10.3841001 14.7469796,10.1477302 14.2484568,9.87268319 C13.4276112,9.43217879 12.0781652,9.01530659 10.8920239,8.75530463 L10.9715298,8.37711487 L16.7561099,8.37711487 Z" id="Combined-Shape"></path></g></g></g></svg> 