<?xml version="1.0" encoding="UTF-8"?>
<svg width="385px" height="385px" viewBox="0 0 385 385" version="1.1" xmlns="http://www.w3.org/2000/svg" xmlns:xlink="http://www.w3.org/1999/xlink">
    <!-- Generator: Sketch 55.2 (78181) - https://sketchapp.com -->
    <title>Artboard</title>
    <desc>Created with Sketch.</desc>
    <g id="Artboard" stroke="none" stroke-width="1" fill="none" fill-rule="evenodd">
        <g id="burger-copy" transform="translate(-30.000000, 1.000000)" fill-rule="nonzero">
            <path d="M445,236.789875 C445,211.528019 427.623271,190.515027 404.929141,186.559476 L404.929141,160.426012 C417.375234,158.114675 426.869727,146.536711 426.869727,132.636306 C426.869727,59.5007275 370.979639,0 302.280156,0 L142.720713,0 C74.0220996,0 18.1311426,59.4998022 18.1311426,132.636306 C18.1311426,146.536711 27.6256348,158.114675 40.0717285,160.426012 L40.0717285,186.559476 C17.3767285,190.514101 0,211.528019 0,236.789875 C0,255.317579 9.34847656,271.55893 23.2834082,280.4647 C20.0484668,285.14289 18.1320117,290.914755 18.1320117,297.15666 L18.1320117,320.13031 C18.1320117,352.590804 42.9390234,379 73.4293457,379 L371.571523,379 C402.062715,379 426.868857,352.590804 426.868857,320.13031 L426.868857,297.15666 C426.868857,290.914755 424.951533,285.143816 421.717461,280.4647 C435.652393,271.559855 445,255.316654 445,236.789875 Z" id="Shape"></path>
            <path d="M396.8543,268 L48.1430974,268 C31.5221453,268 18,253.645058 18,236.00046 C18,218.355863 31.5221453,204.000921 48.1430974,204.000921 L49.2032156,204.000921 L254.5278,204.000921 L301.604159,253.976602 C303.320996,255.800095 305.572229,256.710921 307.822594,256.710921 C310.072959,256.710921 312.324192,255.800095 314.041028,253.976602 L361.062733,204.058941 L361.007212,204 L395.795917,204 L396.856035,204 C413.476987,204 427,218.354942 427,235.99954 C427,253.644137 413.475252,268 396.8543,268 Z" id="Path" fill="#781E00"></path>
            <polygon id="Path" fill="#F7B500" points="58 187 58 162 387 162 387 187"></polygon>
            <path d="M410,320.189283 C410,342.140738 393.074966,360 372.272674,360 L73.7273258,360 C52.9241638,360 36,342.140738 36,320.189283 L36,297.387431 C36,292.211579 39.9912689,288 44.8963696,288 L48.0825962,288 L397.915663,288 L401.10363,288 C406.008731,288 410,292.211579 410,297.387431 L410,320.189283 Z" id="Path" fill="#FA6400"></path>
            <polygon id="Path" fill="#E02020" points="336 205 308 235 280 205"></polygon>
            <path d="M36,132.567564 C36,69.9464125 84.0499196,19 143.112766,19 L302.887234,19 C361.94921,19 410,69.9454897 410,132.567564 C410,137.76823 406.00875,142 401.103672,142 L44.8963282,142 C39.99038,142 36,137.770076 36,132.567564 Z" id="Path" fill="#FA6400"></path>
            <circle id="Oval" fill="#FFFFFF" cx="137" cy="46" r="10"></circle>
            <circle id="Oval" fill="#FFFFFF" cx="308" cy="46" r="10"></circle>
            <circle id="Oval" fill="#FFFFFF" cx="195" cy="46" r="10"></circle>
            <circle id="Oval" fill="#FFFFFF" cx="250" cy="46" r="10"></circle>
        </g>
    </g>
</svg>