<?xml version="1.0" encoding="UTF-8"?> <svg xmlns="http://www.w3.org/2000/svg" xmlns:xlink="http://www.w3.org/1999/xlink" width="40px" height="26px" viewBox="0 0 40 26" version="1.1"><!-- Generator: Sketch 64 (93537) - https://sketch.com --><title>Element/Cross/Loghi/Circuiti/Color/GooglePay</title><desc>Created with Sketch.</desc><g id="Styleguide" stroke="none" stroke-width="1" fill="none" fill-rule="evenodd"><g id="Cross/Iconography" transform="translate(-935.000000, -2079.000000)"><g id="Cross/Element/Loghi/Payment/Color/GooglePay" transform="translate(935.000000, 2072.000000)"><g id="google-pay-mark_800_gray" transform="translate(0.000000, 7.000000)"><g id="border" fill-rule="nonzero"><path d="M36.3982129,0.00844840231 L3.58021148,0.00844840231 C3.44350504,0.00844840231 3.30655705,0.00844840231 3.17009213,0.00917255108 C3.05488193,0.0101380827 2.93991325,0.0113449974 2.82470305,0.0144829753 C2.57375252,0.0212416972 2.32062821,0.0359660555 2.07281757,0.0806218963 C1.82114246,0.125760503 1.58685754,0.199623677 1.35836938,0.315970247 C1.13350418,0.430144369 0.927961446,0.579560398 0.749470163,0.757700995 C0.571220411,0.936082975 0.421712828,1.14125846 0.307468745,1.36622734 C0.191050886,1.59457559 0.117142452,1.82871703 0.0722177179,2.08047942 C0.0272929837,2.32837967 0.0125596031,2.5811076 0.0057967399,2.83166307 C0.00265683912,2.94680272 0.00120765415,3.061701 0.000483061658,3.17659927 C-3.86449327e-05,3.313222 -3.86449327e-05,3.44984473 -3.86449327e-05,3.58670886 L-3.86449327e-05,22.0085707 C-3.86449327e-05,22.1454349 -3.86449327e-05,22.2818163 0.000483061658,22.4186804 C0.00120765415,22.5335786 0.00265683912,22.6487183 0.0057967399,22.7636166 C0.0125596031,23.0139306 0.0272929837,23.2669 0.0722177179,23.5145589 C0.117142452,23.7663212 0.191050886,24.0004627 0.307468745,24.2290522 C0.421712828,24.4537798 0.571220411,24.6591966 0.749470163,24.8373372 C0.927961446,25.0157192 1.13350418,25.1651352 1.35836938,25.279068 C1.58685754,25.3956559 1.82114246,25.4695192 2.07281757,25.5148991 C2.32062821,25.5590722 2.57375252,25.5740379 2.82470305,25.5807966 C2.93991325,25.5834519 3.05488193,25.5851416 3.17009213,25.5856243 C3.30655705,25.5865898 3.44350504,25.5865898 3.58021148,25.5865898 L36.3982129,25.5865898 C36.5346778,25.5865898 36.6716258,25.5865898 36.8080907,25.5856243 C36.9230594,25.5851416 37.038028,25.5834519 37.1537213,25.5807966 C37.4041888,25.5740379 37.6573131,25.5590722 37.9056068,25.5148991 C38.1570404,25.4695192 38.3913253,25.3956559 38.620055,25.279068 C38.8449202,25.1651352 39.0499799,25.0157192 39.2287127,24.8373372 C39.4067209,24.6591966 39.5562285,24.4537798 39.6707141,24.2290522 C39.7873735,24.0004627 39.8612819,23.7663212 39.9059652,23.5145589 C39.9508899,23.2669 39.9653817,23.0139306 39.9721446,22.7636166 C39.9752845,22.6487183 39.9767336,22.5335786 39.9774583,22.4186804 C39.9784244,22.2818163 39.9784244,22.1454349 39.9784244,22.0085707 L39.9784244,3.58670886 C39.9784244,3.44984473 39.9784244,3.313222 39.9774583,3.17659927 C39.9767336,3.061701 39.9752845,2.94680272 39.9721446,2.83166307 C39.9653817,2.5811076 39.9508899,2.32837967 39.9059652,2.08047942 C39.8612819,1.82871703 39.7873735,1.59457559 39.6707141,1.36622734 C39.5562285,1.14125846 39.4067209,0.936082975 39.2287127,0.757700995 C39.0499799,0.579560398 38.8449202,0.430144369 38.620055,0.315970247 C38.3913253,0.199623677 38.1570404,0.125760503 37.9056068,0.0806218963 C37.6573131,0.0359660555 37.4041888,0.0212416972 37.1537213,0.0144829753 C37.038028,0.0113449974 36.9230594,0.0101380827 36.8080907,0.00917255108 C36.6716258,0.00844840231 36.5346778,0.00844840231 36.3982129,0.00844840231" id="Fill-1" fill="#3C4043"></path><path d="M36.3982129,0.861012887 L36.8020524,0.861737035 C36.9112244,0.862461184 37.0206378,0.863668099 37.1305344,0.866806076 C37.3218268,0.871875118 37.5457258,0.882254584 37.7544085,0.919668936 C37.9355566,0.952255633 38.087721,1.00198052 38.2336056,1.07608507 C38.3777995,1.14922409 38.5096754,1.2452945 38.6248856,1.36019277 C38.7405789,1.47605657 38.8367081,1.60809304 38.9108581,1.75364694 C38.9847666,1.89847669 39.0340389,2.0495824 39.0666455,2.23206789 C39.1038412,2.43845029 39.1142271,2.66269502 39.1192992,2.85507721 C39.1224392,2.96345815 39.1238883,3.07208046 39.1243714,3.18335799 C39.1253375,3.31780827 39.1253375,3.45201719 39.1253375,3.58670886 L39.1253375,22.0085707 C39.1253375,22.1432624 39.1253375,22.2774713 39.1243714,22.4145768 C39.1238883,22.5231992 39.1224392,22.6318215 39.1192992,22.7406852 C39.1142271,22.9325846 39.1038412,23.1568294 39.0661624,23.3653842 C39.0340389,23.5454558 38.9847666,23.6965615 38.9103751,23.8421155 C38.8364666,23.987428 38.7405789,24.1192231 38.6253687,24.2343627 C38.5094339,24.3502265 38.3780411,24.4458141 38.2321565,24.5196774 C38.087238,24.5935405 37.9355566,24.6432654 37.7560992,24.6753693 C37.543069,24.7132664 37.3099918,24.7238872 37.1343989,24.7284735 C37.0240193,24.7311288 36.9141227,24.732577 36.8013278,24.7330599 C36.6672782,24.7340253 36.532504,24.7340253 36.3982129,24.7340253 L3.58021148,24.7340253 C3.57852076,24.7340253 3.57683005,24.7340253 3.57489781,24.7340253 C3.44229737,24.7340253 3.30921389,24.7340253 3.17419816,24.7330599 C3.0640601,24.732577 2.95416358,24.7311288 2.84789,24.7287149 C2.66819107,24.7238872 2.43487229,24.7132664 2.22377434,24.6756107 C2.04262622,24.6432654 1.89094487,24.5935405 1.74409412,24.5187118 C1.59965868,24.4455728 1.46826591,24.3499851 1.35233112,24.2338799 C1.23736244,24.1192231 1.14171623,23.9876694 1.06780779,23.8421155 C0.993657835,23.6968029 0.944144009,23.5452145 0.91153735,23.3629704 C0.874100071,23.1546568 0.863714246,22.9316191 0.858400567,22.7406852 C0.855502197,22.6315801 0.854294543,22.5222336 0.85356995,22.4138527 L0.853086888,22.0932962 L0.853086888,3.50222483 L0.85356995,3.18239246 C0.854294543,3.073046 0.855502197,2.96394091 0.858400567,2.85483583 C0.863714246,2.66366056 0.874100071,2.44038136 0.912020411,2.23037821 C0.944144009,2.05006517 0.993657835,1.8982353 1.06804933,1.75219864 C1.1414747,1.60785165 1.23736244,1.47605657 1.35281417,1.36067554 C1.46802438,1.2452945 1.60014174,1.14970686 1.74530177,1.07584369 C1.8904618,1.00173913 2.04262622,0.952255633 2.22377434,0.919668936 C2.43245698,0.882254584 2.65635606,0.871875118 2.84813154,0.866806076 C2.95730347,0.863668099 3.06671694,0.862461184 3.17516428,0.861737035 L3.58021148,0.861012887 L36.3982129,0.861012887" id="wihit-fill" fill="#FFFFFE"></path></g><g id="GPay-logo" transform="translate(4.589086, 7.245283)" fill-rule="nonzero"><g id="Pay" transform="translate(13.512462, 0.717628)" fill="#3C4043"><path d="M1.14608312,5.42526792 L1.14608312,9.07081832 L0.00707458722,9.07081832 L0.00707458722,0.0717628032 L3.02792333,0.0717628032 C3.75660582,0.0574102425 4.46406454,0.337285176 4.9805094,0.853977358 C6.01339913,1.82995148 6.07707042,3.47331968 5.10785197,4.52823288 C5.06540445,4.57129057 5.02295692,4.61434824 4.9805094,4.65740593 C4.44991536,5.16692184 3.79905334,5.42526792 3.02792333,5.42526792 L1.14608312,5.42526792 Z M1.14608312,1.17690998 L1.14608312,4.32012075 L3.05622168,4.32012075 C3.48069691,4.33447332 3.89102296,4.16224259 4.18108104,3.85366253 C4.77534637,3.22932615 4.7611972,2.2246469 4.14570811,1.62183935 C3.85565003,1.33478814 3.46654774,1.17690998 3.05622168,1.17690998 L1.14608312,1.17690998 Z" id="Shape"></path><path d="M8.42583337,2.71263396 C9.26770925,2.71263396 9.93272047,2.94227494 10.420867,3.39438059 C10.9090135,3.84648625 11.1495495,4.47799892 11.1495495,5.27456604 L11.1495495,9.07081832 L10.0600631,9.07081832 L10.0600631,8.21684097 L10.0105409,8.21684097 C9.53654353,8.92011644 8.9139799,9.27175417 8.12870072,9.27175417 C7.46368952,9.27175417 6.89772253,9.07081832 6.45202354,8.66894664 C6.01339913,8.29578006 5.76578858,7.74320647 5.77993776,7.16192776 C5.77993776,6.52323881 6.02047372,6.02089919 6.49447107,5.64055634 C6.9684684,5.26021348 7.60518126,5.07363019 8.39753503,5.07363019 C9.0766954,5.07363019 9.62851322,5.20280324 10.0671376,5.44679676 L10.0671376,5.18127439 C10.0671376,4.78657897 9.89734748,4.4134124 9.60021487,4.15506631 C9.2960076,3.88236765 8.90690531,3.73166577 8.50365384,3.73166577 C7.86694099,3.73166577 7.36464529,4.00436442 6.99676676,4.54976172 L5.99217537,3.91107277 C6.529844,3.11450566 7.34342153,2.71263396 8.42583337,2.71263396 Z M6.95431924,7.1834566 C6.95431924,7.48486038 7.09581097,7.76473531 7.32927236,7.93696604 C7.5839575,8.13790188 7.89523933,8.24554609 8.21359576,8.23836981 C8.69466769,8.23836981 9.15451586,8.04461024 9.494096,7.70014879 C9.86904913,7.34133477 10.0600631,6.91793423 10.0600631,6.42994717 C9.70633365,6.14289595 9.21111256,5.99937035 8.57439971,6.00654664 C8.11455154,6.00654664 7.72544924,6.12136712 7.41416741,6.3438318 C7.10996015,6.5662965 6.95431924,6.84617143 6.95431924,7.1834566 Z" id="Shape"></path><polygon id="Path" points="17.4034845 2.91356981 13.5973566 11.776276 12.4229752 11.776276 13.8378926 8.67612291 11.3405633 2.91356981 12.5786161 2.91356981 14.3826359 7.33415849 14.4038596 7.33415849 16.1654318 2.91356981"></polygon></g><g id="Super-G"><path d="M10.0529884,5.35350512 C10.0529884,5.00186739 10.0246901,4.65022965 9.96809336,4.3057682 L5.16444867,4.3057682 L5.16444867,6.29359784 L7.9164631,6.29359784 C7.8032697,6.9322868 7.43539116,7.50638921 6.89772253,7.86520324 L6.89772253,9.15693369 L8.53902677,9.15693369 C9.50117064,8.25989865 10.0529884,6.9322868 10.0529884,5.35350512 Z" id="Path" fill="#4285F4"></path><path d="M5.16444867,10.4056065 C6.53691859,10.4056065 7.69715089,9.94632452 8.53902677,9.15693369 L6.89772253,7.86520324 C6.43787437,8.18095957 5.85068363,8.36036658 5.16444867,8.36036658 C3.83442627,8.36036658 2.70956691,7.44897897 2.30631544,6.22901132 L0.615489088,6.22901132 L0.615489088,7.56379946 C1.47858872,9.30763558 3.24016094,10.4056065 5.16444867,10.4056065 Z" id="Path" fill="#34A853"></path><path d="M2.30631544,6.22901132 C2.09407782,5.59032237 2.09407782,4.89422318 2.30631544,4.24835795 L2.30631544,2.92074609 L0.615489088,2.92074609 C-0.113193396,4.37753099 -0.113193396,6.09983828 0.615489088,7.55662318 L2.30631544,6.22901132 Z" id="Path" fill="#FBBC04"></path><path d="M5.16444867,2.11700269 C5.89313115,2.10265014 6.59351528,2.38252506 7.11703474,2.89204097 L8.57439971,1.41372723 C7.64762878,0.538221024 6.43079978,0.0574102425 5.16444867,0.0717628032 C3.24016094,0.0717628032 1.47858872,1.17690998 0.615489088,2.92074609 L2.30631544,4.25553423 C2.70956691,3.0283903 3.83442627,2.11700269 5.16444867,2.11700269 Z" id="Path" fill="#EA4335"></path></g></g></g></g></g></g></svg> 