<?xml version="1.0" encoding="UTF-8"?> <svg xmlns="http://www.w3.org/2000/svg" xmlns:xlink="http://www.w3.org/1999/xlink" width="40px" height="40px" viewBox="0 0 40 40" version="1.1"><title>Cross/Element/Loghi/Circuiti/Color/Maestro</title><defs><polygon id="path-1" points="0 28.0026 36 28.0026 36 -0.0004 0 -0.0004"></polygon></defs><g id="Cross/Element/Loghi/Circuiti/Color/Maestro" stroke="none" stroke-width="1" fill="none" fill-rule="evenodd"><g id="Group-8" transform="translate(2.000000, 6.000000)"><path d="M30.3949,27.6224 L30.3949,27.6954 L30.4609,27.6954 C30.4769,27.6954 30.4899,27.6924 30.4989,27.6854 C30.5069,27.6804 30.5119,27.6714 30.5119,27.6584 C30.5119,27.6464 30.5069,27.6384 30.4989,27.6314 C30.4899,27.6254 30.4769,27.6224 30.4609,27.6224 L30.3949,27.6224 Z M30.4619,27.5714 C30.4979,27.5714 30.5249,27.5794 30.5429,27.5954 C30.5619,27.6104 30.5719,27.6324 30.5719,27.6584 C30.5719,27.6814 30.5639,27.6994 30.5489,27.7144 C30.5339,27.7284 30.5119,27.7374 30.4849,27.7414 L30.5739,27.8444 L30.5039,27.8444 L30.4209,27.7424 L30.3949,27.7424 L30.3949,27.8444 L30.3359,27.8444 L30.3359,27.5714 L30.4619,27.5714 Z M30.4449,27.9374 C30.4769,27.9374 30.5059,27.9324 30.5339,27.9204 C30.5609,27.9074 30.5849,27.8924 30.6059,27.8704 C30.6259,27.8504 30.6419,27.8264 30.6539,27.7984 C30.6659,27.7704 30.6719,27.7404 30.6719,27.7094 C30.6719,27.6774 30.6659,27.6474 30.6539,27.6194 C30.6419,27.5924 30.6259,27.5674 30.6059,27.5474 C30.5849,27.5264 30.5609,27.5104 30.5339,27.4984 C30.5059,27.4864 30.4769,27.4804 30.4449,27.4804 C30.4129,27.4804 30.3829,27.4864 30.3549,27.4984 C30.3269,27.5104 30.3019,27.5264 30.2819,27.5474 C30.2609,27.5674 30.2449,27.5924 30.2329,27.6194 C30.2209,27.6474 30.2149,27.6774 30.2149,27.7094 C30.2149,27.7404 30.2209,27.7704 30.2329,27.7984 C30.2449,27.8264 30.2609,27.8504 30.2819,27.8704 C30.3019,27.8924 30.3269,27.9074 30.3549,27.9204 C30.3829,27.9324 30.4129,27.9374 30.4449,27.9374 L30.4449,27.9374 Z M30.4449,27.4154 C30.4869,27.4154 30.5249,27.4234 30.5609,27.4384 C30.5969,27.4534 30.6289,27.4754 30.6569,27.5014 C30.6829,27.5274 30.7049,27.5594 30.7199,27.5954 C30.7359,27.6304 30.7439,27.6684 30.7439,27.7094 C30.7439,27.7494 30.7359,27.7874 30.7199,27.8224 C30.7049,27.8574 30.6829,27.8894 30.6569,27.9164 C30.6289,27.9424 30.5969,27.9634 30.5609,27.9784 C30.5249,27.9944 30.4869,28.0024 30.4449,28.0024 C30.4029,28.0024 30.3639,27.9944 30.3269,27.9784 C30.2909,27.9634 30.2579,27.9424 30.2319,27.9164 C30.2049,27.8894 30.1829,27.8574 30.1669,27.8224 C30.1519,27.7874 30.1439,27.7494 30.1439,27.7094 C30.1439,27.6684 30.1519,27.6304 30.1669,27.5954 C30.1829,27.5594 30.2049,27.5274 30.2319,27.5014 C30.2579,27.4754 30.2909,27.4534 30.3269,27.4384 C30.3639,27.4234 30.4029,27.4154 30.4449,27.4154 L30.4449,27.4154 Z M26.0009,24.8204 C26.1309,24.8204 26.3159,24.8454 26.4579,24.9004 L26.2599,25.5064 C26.1239,25.4504 25.9889,25.4324 25.8599,25.4324 C25.4399,25.4324 25.2299,25.7034 25.2299,26.1904 L25.2299,27.8454 L24.5879,27.8454 L24.5879,24.8944 L25.2239,24.8944 L25.2239,25.2524 C25.3899,24.9934 25.6309,24.8204 26.0009,24.8204 L26.0009,24.8204 Z M23.7799,25.4804 L22.7309,25.4804 L22.7309,26.8134 C22.7309,27.1104 22.8349,27.3084 23.1569,27.3084 C23.3239,27.3084 23.5339,27.2524 23.7239,27.1414 L23.9099,27.6904 C23.7059,27.8324 23.3849,27.9194 23.1069,27.9194 C22.3479,27.9194 22.0819,27.5124 22.0819,26.8264 L22.0819,25.4804 L21.4839,25.4804 L21.4839,24.8944 L22.0819,24.8944 L22.0819,23.9994 L22.7309,23.9994 L22.7309,24.8944 L23.7799,24.8944 L23.7799,25.4804 Z M20.6959,25.6474 C20.5169,25.5364 20.1529,25.3944 19.7759,25.3944 C19.4239,25.3944 19.2139,25.5234 19.2139,25.7404 C19.2139,25.9374 19.4369,25.9934 19.7139,26.0304 L20.0169,26.0734 C20.6589,26.1664 21.0469,26.4374 21.0469,26.9564 C21.0469,27.5184 20.5539,27.9194 19.7029,27.9194 C19.2209,27.9194 18.7759,27.7954 18.4249,27.5364 L18.7269,27.0364 C18.9429,27.2024 19.2639,27.3454 19.7079,27.3454 C20.1469,27.3454 20.3809,27.2154 20.3809,26.9864 C20.3809,26.8204 20.2139,26.7274 19.8629,26.6784 L19.5599,26.6354 C18.8999,26.5424 18.5419,26.2464 18.5419,25.7654 C18.5419,25.1794 19.0229,24.8204 19.7699,24.8204 C20.2389,24.8204 20.6649,24.9254 20.9729,25.1294 L20.6959,25.6474 Z M15.7949,26.1104 C15.8629,25.6854 16.1229,25.3944 16.5799,25.3944 C16.9929,25.3944 17.2579,25.6534 17.3259,26.1104 L15.7949,26.1104 Z M17.9929,26.3694 C17.9869,25.4504 17.4189,24.8204 16.5919,24.8204 C15.7279,24.8204 15.1229,25.4504 15.1229,26.3694 C15.1229,27.3084 15.7519,27.9194 16.6349,27.9194 C17.0789,27.9194 17.4869,27.8084 17.8449,27.5054 L17.5299,27.0304 C17.2829,27.2274 16.9679,27.3394 16.6719,27.3394 C16.2579,27.3394 15.8819,27.1474 15.7899,26.6164 L17.9799,26.6164 C17.9869,26.5364 17.9929,26.4564 17.9929,26.3694 L17.9929,26.3694 Z M28.2349,25.4244 C28.1029,25.4244 27.9809,25.4474 27.8679,25.4934 C27.7549,25.5394 27.6579,25.6034 27.5759,25.6874 C27.4929,25.7704 27.4279,25.8704 27.3809,25.9864 C27.3329,26.1014 27.3099,26.2294 27.3099,26.3694 C27.3099,26.5094 27.3329,26.6374 27.3809,26.7534 C27.4279,26.8694 27.4929,26.9694 27.5759,27.0524 C27.6579,27.1354 27.7549,27.1994 27.8679,27.2464 C27.9809,27.2924 28.1029,27.3154 28.2349,27.3154 C28.3659,27.3154 28.4879,27.2924 28.6009,27.2464 C28.7139,27.1994 28.8119,27.1354 28.8949,27.0524 C28.9779,26.9694 29.0429,26.8694 29.0909,26.7534 C29.1379,26.6374 29.1619,26.5094 29.1619,26.3694 C29.1619,26.2294 29.1379,26.1014 29.0909,25.9864 C29.0429,25.8704 28.9779,25.7704 28.8949,25.6874 C28.8119,25.6034 28.7139,25.5394 28.6009,25.4934 C28.4879,25.4474 28.3659,25.4244 28.2349,25.4244 L28.2349,25.4244 Z M28.2349,24.8164 C28.4619,24.8164 28.6729,24.8564 28.8679,24.9354 C29.0619,25.0154 29.2299,25.1234 29.3719,25.2624 C29.5129,25.4004 29.6239,25.5644 29.7039,25.7534 C29.7839,25.9424 29.8239,26.1474 29.8239,26.3694 C29.8239,26.5914 29.7839,26.7974 29.7039,26.9854 C29.6239,27.1754 29.5129,27.3384 29.3719,27.4764 C29.2299,27.6154 29.0619,27.7254 28.8679,27.8044 C28.6729,27.8834 28.4619,27.9224 28.2349,27.9224 C28.0059,27.9224 27.7949,27.8834 27.6009,27.8044 C27.4079,27.7254 27.2399,27.6154 27.0989,27.4764 C26.9579,27.3384 26.8479,27.1754 26.7679,26.9854 C26.6879,26.7974 26.6479,26.5914 26.6479,26.3694 C26.6479,26.1474 26.6879,25.9424 26.7679,25.7534 C26.8479,25.5644 26.9579,25.4004 27.0989,25.2624 C27.2399,25.1234 27.4079,25.0154 27.6009,24.9354 C27.7949,24.8564 28.0059,24.8164 28.2349,24.8164 L28.2349,24.8164 Z M12.1109,26.3694 C12.1109,25.8514 12.4509,25.4254 13.0059,25.4254 C13.5369,25.4254 13.8949,25.8324 13.8949,26.3694 C13.8949,26.9064 13.5369,27.3134 13.0059,27.3134 C12.4509,27.3134 12.1109,26.8884 12.1109,26.3694 L12.1109,26.3694 Z M14.4999,26.3694 L14.4999,24.8944 L13.8579,24.8944 L13.8579,25.2524 C13.6539,24.9874 13.3459,24.8204 12.9259,24.8204 C12.0989,24.8204 11.4509,25.4694 11.4509,26.3694 C11.4509,27.2704 12.0989,27.9194 12.9259,27.9194 C13.3459,27.9194 13.6539,27.7524 13.8579,27.4864 L13.8579,27.8454 L14.4999,27.8454 L14.4999,26.3694 Z M10.8829,27.8454 L10.8829,25.9934 C10.8829,25.2964 10.4389,24.8264 9.7229,24.8204 C9.3469,24.8144 8.9579,24.9324 8.6859,25.3454 C8.4819,25.0184 8.1619,24.8204 7.7109,24.8204 C7.3959,24.8204 7.0879,24.9134 6.8469,25.2594 L6.8469,24.8944 L6.2049,24.8944 L6.2049,27.8454 L6.8529,27.8454 L6.8529,26.2094 C6.8529,25.6964 7.1369,25.4254 7.5749,25.4254 C8.0009,25.4254 8.2169,25.7034 8.2169,26.2034 L8.2169,27.8454 L8.8649,27.8454 L8.8649,26.2094 C8.8649,25.6964 9.1619,25.4254 9.5869,25.4254 C10.0249,25.4254 10.2349,25.7034 10.2349,26.2034 L10.2349,27.8454 L10.8829,27.8454 Z" id="Fill-1" fill="#000000"></path><mask id="mask-2" fill="white"><use xlink:href="#path-1"></use></mask><g id="Clip-4"></g><polygon id="Fill-3" fill="#7673C0" mask="url(#mask-2)" points="13.133 19.8726 22.868 19.8726 22.868 2.3786 13.133 2.3786"></polygon><path d="M13.7509,11.1253 C13.7509,7.5763 15.4129,4.4163 17.9999,2.3783 C16.1079,0.8893 13.7199,0.0003 11.1249,0.0003 C4.9809,0.0003 -0.0001,4.9803 -0.0001,11.1253 C-0.0001,17.2703 4.9809,22.2503 11.1249,22.2503 C13.7199,22.2503 16.1079,21.3613 17.9999,19.8723 C15.4129,17.8353 13.7509,14.6743 13.7509,11.1253" id="Fill-5" fill="#EB001B" mask="url(#mask-2)"></path><path d="M35.6528,18.0189 L35.6528,17.5869 L35.5398,17.5869 L35.4108,17.8839 L35.2808,17.5869 L35.1678,17.5869 L35.1678,18.0189 L35.2478,18.0189 L35.2478,17.6939 L35.3688,17.9739 L35.4518,17.9739 L35.5728,17.6929 L35.5728,18.0189 L35.6528,18.0189 Z M34.9388,18.0189 L34.9388,17.6619 L35.0838,17.6619 L35.0838,17.5879 L34.7158,17.5879 L34.7158,17.6619 L34.8598,17.6619 L34.8598,18.0189 L34.9388,18.0189 Z" id="Fill-6" fill="#00A1DF" mask="url(#mask-2)"></path><path d="M36.0004,11.1253 C36.0004,17.2703 31.0194,22.2503 24.8754,22.2503 C22.2794,22.2503 19.8924,21.3613 18.0004,19.8723 C20.5874,17.8353 22.2494,14.6743 22.2494,11.1253 C22.2494,7.5763 20.5874,4.4163 18.0004,2.3783 C19.8924,0.8893 22.2794,0.0003 24.8754,0.0003 C31.0194,0.0003 36.0004,4.9803 36.0004,11.1253" id="Fill-7" fill="#00A1DF" mask="url(#mask-2)"></path></g></g></svg> 