<?xml version="1.0" encoding="UTF-8"?> <svg xmlns="http://www.w3.org/2000/svg" xmlns:xlink="http://www.w3.org/1999/xlink" width="40px" height="23px" viewBox="0 0 40 23" version="1.1"><!-- Generator: Sketch 64 (93537) - https://sketch.com --><title>Element/Cross/Loghi/Circuiti/Color/PagoBancomat</title><desc>Created with Sketch.</desc><g id="Styleguide" stroke="none" stroke-width="1" fill="none" fill-rule="evenodd"><g id="Cross/Iconography" transform="translate(-445.000000, -2081.000000)"><g id="Cross/Element/Loghi/Circuiti/Color/PagoBancomat" transform="translate(445.000000, 2072.000000)"><path d="M1.83563636,9 C0.821818182,9 0,9.82181818 0,10.8356364 L0,29.4385455 C0,30.4523636 0.821818182,31.2741818 1.83563636,31.2741818 L35.288,31.2741818 C36.3018182,31.2741818 37.1236364,30.4523636 37.1236364,29.4385455 L37.1236364,10.8356364 C37.1236364,9.82181818 36.3018182,9 35.288,9 L1.83563636,9 Z" id="Path" fill="#FFFFFF"></path><path d="M39.0647273,29.4043636 C39.3236364,29.4043636 39.544,29.4952727 39.7265455,29.6770909 C39.9098182,29.8581818 40,30.0785455 40,30.336 C40,30.5956364 39.9098182,30.816 39.7265455,30.9992727 C39.544,31.1832727 39.3236364,31.2741818 39.0647273,31.2741818 C38.8065455,31.2741818 38.5861818,31.1832727 38.4043636,30.9992727 C38.2232727,30.8167273 38.1330909,30.5963636 38.1330909,30.336 C38.1330909,30.0792727 38.224,29.8589091 38.4072727,29.6770909 C38.5883636,29.4952727 38.808,29.4043636 39.0647273,29.4043636 Z M39.0647273,29.5316364 C38.8429091,29.5316364 38.6545455,29.6101818 38.4967273,29.768 C38.3410909,29.9258182 38.2625455,30.1149091 38.2625455,30.3374545 C38.2625455,30.5621818 38.3410909,30.7527273 38.496,30.9105455 C38.6523636,31.0683636 38.8414545,31.1476364 39.0647273,31.1476364 C39.288,31.1476364 39.4770909,31.0683636 39.6334545,30.9105455 C39.7898182,30.7527273 39.8683636,30.5621818 39.8683636,30.3374545 C39.8683636,30.1149091 39.7898182,29.9258182 39.6334545,29.768 C39.4770909,29.6101818 39.2872727,29.5316364 39.0647273,29.5316364 Z M39.048,29.8203636 C39.1738182,29.8203636 39.2669091,29.8327273 39.3272727,29.8574545 C39.4334545,29.9018182 39.4858182,29.9883636 39.4858182,30.1178182 C39.4858182,30.2094545 39.4523636,30.2763636 39.3854545,30.32 C39.3512727,30.3432727 39.3010909,30.36 39.2378182,30.3701818 C39.3178182,30.3825455 39.3767273,30.4167273 39.4138182,30.4705455 C39.4509091,30.5250909 39.4698182,30.5774545 39.4698182,30.6290909 L39.4698182,30.7047273 C39.4698182,30.728 39.4705455,30.7541818 39.4727273,30.7810909 C39.4749091,30.808 39.4770909,30.8254545 39.4807273,30.8341818 L39.4872727,30.8465455 L39.3185455,30.8465455 C39.3178182,30.8436364 39.3163636,30.8407273 39.3156364,30.8370909 L39.3134545,30.8254545 L39.3134545,30.8254545 L39.3098182,30.792 L39.3098182,30.7112727 C39.3098182,30.5927273 39.2770909,30.5141818 39.2123636,30.4763636 C39.1738182,30.4538182 39.1076364,30.4436364 39.0109091,30.4436364 L38.8690909,30.4436364 L38.8690909,30.8465455 L38.6872727,30.8465455 L38.6872727,29.8203636 L39.048,29.8203636 Z M39.0232727,29.944 L38.8690909,29.944 L38.8690909,30.3156364 L39.032,30.3156364 C39.1090909,30.3156364 39.1665455,30.3083636 39.2043636,30.2930909 C39.2749091,30.2654545 39.3105455,30.2116364 39.3105455,30.1323636 C39.3105455,30.0574545 39.288,30.008 39.2421818,29.9818182 C39.1970909,29.9570909 39.1236364,29.944 39.0232727,29.944 Z M35.4472727,9 C36.3298756,9.10266029 37.0447263,9.80713976 37.1175288,10.8104332 L37.1236364,10.9803636 L37.0247273,23.8494545 L4.88853402e-12,23.8494545 L4.88853402e-12,10.9803636 C4.88853402e-12,9.94411483 0.697118106,9.20616469 1.53481414,9.02499522 L1.67563636,9 L35.4472727,9 Z M29.1047273,10.7570909 L23.8065455,16.056 C23.4836364,16.3781818 23.4836364,16.9010909 23.8065455,17.2232727 L29.1047273,22.5221818 C29.4269091,22.8450909 29.9498182,22.8450909 30.272,22.5221818 L35.5701818,17.2232727 C35.8930909,16.9010909 35.8930909,16.3781818 35.5701818,16.056 L30.272,10.7570909 C29.9498182,10.4349091 29.4269091,10.4349091 29.1047273,10.7570909 Z M20.4792727,13.5214545 C19.4087273,13.5214545 18.6378182,13.8385455 18.1229091,14.4909091 C17.7214545,14.9992727 17.4763636,15.7076364 17.3527273,16.7207273 C17.2029091,17.9389091 17.3418182,18.7418182 17.7898182,19.248 C18.1818182,19.6923636 18.8043636,19.9076364 19.6909091,19.9076364 C20.7578182,19.9076364 21.5258182,19.5905455 22.04,18.9389091 C22.4407273,18.432 22.6843636,17.7250909 22.808,16.7170909 C22.9607273,15.4734545 22.8276364,14.6901818 22.3745455,14.1781818 C21.9832727,13.7367273 21.3636364,13.5214545 20.4792727,13.5214545 Z M15.184,13.5236364 C13.032,13.5236364 12.2152727,14.5578182 11.9505455,16.7185455 C11.7185455,18.6021818 12.0632727,19.9054545 14.1069091,19.9054545 C16.1076364,19.9054545 16.6690909,19.1658182 16.9076364,17.2232727 L17.0494545,16.0712727 L14.4509091,16.0712727 L14.2850909,17.4247273 L15.3614545,17.4247273 L15.3476364,17.5345455 C15.2785455,18.0974545 15.0996364,18.5265455 14.4269091,18.5265455 C13.6618182,18.5265455 13.4443636,18.1738182 13.6174545,16.7687273 C13.7970909,15.3061818 14.256,15.1294545 14.9112727,15.1294545 C16.0894545,15.1294545 16.6843636,15.2981818 16.6843636,15.2981818 L16.8756364,13.7367273 C16.8756364,13.7367273 16.2530909,13.5236364 15.184,13.5236364 Z M4.84654545,13.5992727 L2.24872727,13.5992727 L1.48363636,19.8298182 L3.12363636,19.8298182 L3.34981818,17.9883636 L4.27418182,17.9883636 C5.94763636,17.9883636 6.61890909,16.9709091 6.77309091,15.7185455 C6.92872727,14.4487273 6.47781818,13.5992727 4.84654545,13.5992727 Z M9.43709091,13.576 L8.57672727,13.576 L5.86472727,19.8101818 L7.49963636,19.8101818 L7.856,18.9330909 L7.86036364,18.9221818 L9.70036364,18.9221818 L9.70254545,18.936 L9.84290909,19.8101818 L11.5316364,19.8101818 L10.5192727,14.4727273 C10.4210909,13.9534545 9.96581818,13.576 9.43709091,13.576 Z M31.9701818,17.6429091 C31.968,17.7272727 31.9621818,17.8145455 31.9512727,17.9112727 C31.8145455,19.0210909 31.0087273,19.5563636 29.6938182,19.5563636 L27.0283636,19.5563636 L27.1825455,18.32 L29.8305455,18.32 C30.1687273,18.32 30.352,18.1156364 30.3956364,17.7541818 C30.4007273,17.7134545 30.4021818,17.6785455 30.4021818,17.6429091 L31.9701818,17.6429091 Z M20.2807273,15.1032727 C20.6050909,15.1032727 20.8334545,15.1832727 20.9781818,15.3469091 C21.2210909,15.6210909 21.2181818,16.0989091 21.1345455,16.7803636 C21.0174545,17.7323636 20.8501818,18.4610909 19.8727273,18.4610909 C19.544,18.4610909 19.3141818,18.3810909 19.168,18.216 C18.9250909,17.9410909 18.928,17.4610909 19.0123636,16.776 C19.0669091,16.3250909 19.1454545,15.8654545 19.3418182,15.5563636 C19.5381818,15.2472727 19.8370909,15.1032727 20.2807273,15.1032727 Z M9.17236364,15.7272727 L9.18254545,15.7825455 L9.48872727,17.5083636 L9.49236364,17.5272727 L8.40290909,17.5272727 L8.41309091,17.5047273 L9.15054545,15.7789091 L9.17236364,15.7272727 Z M30.3709091,13.7229091 C31.8669091,13.7229091 32.2683636,14.3607273 32.1614545,15.2349091 C32.1170909,15.592 32.0167273,15.8763636 31.8690909,16.0923636 L32.0232727,16.0923636 C32.6218182,16.0923636 33.0850909,16.6152727 33.0123636,17.2087273 L27.3192727,17.2087273 L27.456,16.0923636 L30.0269091,16.0923636 C30.4036364,16.0916364 30.5214545,15.832 30.5607273,15.5178182 C30.5985455,15.2029091 30.544,15.0065455 30.1585455,15.0065455 L27.5898182,15.0065455 L27.7447273,13.7229091 L30.3709091,13.7229091 Z M4.61018182,15.0450909 C5.064,15.0450909 5.19563636,15.2807273 5.12945455,15.8189091 C5.07078788,16.2969091 4.9070101,16.5347424 4.53056566,16.5710619 L4.42254545,16.576 L3.52290909,16.576 L3.71054545,15.0450909 L4.61018182,15.0450909 Z" id="Combined-Shape" fill="#F6BD33"></path><path d="M35.288,9 C36.3018182,9 37.1236364,9.82181818 37.1236364,10.8356364 L37.1236364,10.8356364 L37.1236364,29.4385455 C37.1236364,30.4523636 36.3018182,31.2741818 35.288,31.2741818 L35.288,31.2741818 L1.83563636,31.2741818 C0.821818182,31.2741818 -2.84217094e-13,30.4523636 -2.84217094e-13,29.4385455 L-2.84217094e-13,29.4385455 L-2.84217094e-13,10.8356364 C-2.84217094e-13,9.82181818 0.821818182,9 1.83563636,9 L1.83563636,9 Z M35.288,9.26909091 L1.83563636,9.26909091 L1.69321761,9.27550318 C0.895665544,9.34764983 0.268363636,10.0196364 0.268363636,10.8356364 L0.268363636,10.8356364 L0.269090909,29.4385455 C0.269090909,30.3025455 0.971636364,31.0050909 1.83563636,31.0050909 L1.83563636,31.0050909 L35.288,31.0050909 C36.1512727,31.0050909 36.8545455,30.3025455 36.8545455,29.4385455 L36.8545455,29.4385455 L36.8545455,10.8356364 C36.8545455,9.97236364 36.1512727,9.26909091 35.288,9.26909091 L35.288,9.26909091 Z M20.2545455,25.0872727 C20.9396364,25.0872727 21.4203636,25.2530909 21.7229091,25.5963636 C22.0749091,25.9927273 22.1781818,26.6 22.0596364,27.5636364 C21.9636364,28.3454545 21.7745455,28.8930909 21.4647273,29.2865455 C21.0661818,29.7912727 20.4705455,30.0370909 19.6436364,30.0370909 C18.9563636,30.0370909 18.4741818,29.8698182 18.1701818,29.5258182 C17.8225455,29.1330909 17.7149091,28.5112727 17.8312727,27.5672727 C17.9272727,26.7818182 18.1170909,26.2327273 18.4276364,25.8385455 C18.8269091,25.3330909 19.4247273,25.0872727 20.2545455,25.0872727 Z M16.8683636,25.0872727 C17.4021818,25.0872727 17.8669091,25.2152727 18.2123636,25.4574545 L17.4,26.5185455 C17.2087273,26.3927273 16.9556364,26.3265455 16.6661818,26.3265455 C16.112,26.3265455 15.8254545,26.5170909 15.6916364,27.6029091 C15.6189091,28.1985455 15.6574545,28.5447273 15.8189091,28.7272727 C15.928,28.8501818 16.0916364,28.9025455 16.3665455,28.9025455 C16.6654545,28.9025455 16.8981818,28.8341818 17.192,28.6589091 L17.6981818,29.6450909 C17.2901818,29.8807273 16.8690909,30.0370909 16.152,30.0370909 C15.5032727,30.0370909 15.0450909,29.8756364 14.7512727,29.544 C14.4036364,29.1498182 14.2901818,28.5032727 14.4050909,27.5672727 C14.5054545,26.7410909 14.712,26.1723636 15.0509091,25.7774545 C15.4501818,25.3127273 16.0450909,25.0872727 16.8683636,25.0872727 Z M7.93236364,25.1694545 C8.30393388,25.1694545 8.62802104,25.4104763 8.74124828,25.7553708 L8.76872727,25.8618182 L9.54981818,29.9825455 L8.24654545,29.9825455 L8.13818182,29.3083636 L8.136,29.2981818 L6.71563636,29.2981818 L6.712,29.3061818 L6.43636364,29.9825455 L5.17309091,29.9825455 L7.26763636,25.1694545 L7.93236364,25.1694545 Z M35.4778182,25.1694545 L35.3352727,26.3258182 L33.8945455,26.3258182 L33.4465455,29.9825455 L32.1672727,29.9825455 L32.6145455,26.3258182 L31.3490909,26.3258182 L31.5105455,25.1694545 L35.4778182,25.1694545 Z M4.01309091,25.1461818 C5.25163636,25.1461818 5.58472727,25.6741818 5.496,26.3985455 C5.42690909,26.9585455 5.18909091,27.3047273 4.84436364,27.4545455 C5.26690909,27.624 5.40072727,27.9694545 5.32145455,28.6152727 C5.20872727,29.5345455 4.54109091,29.9781818 3.45236364,29.9781818 L1.48945455,29.9781818 L2.08218182,25.1461818 L4.01309091,25.1461818 Z M29.9992727,25.1461818 C30.4101818,25.1461818 30.7629091,25.4385455 30.8385455,25.8414545 L31.624,29.9781818 L30.3149091,29.9781818 L30.2050909,29.3010909 L30.2036364,29.2901818 L28.7781818,29.2901818 L28.7745455,29.2981818 L28.4981818,29.9781818 L27.2305455,29.9781818 L29.3330909,25.1461818 L29.9992727,25.1461818 Z M23.6683636,25.1461818 C24.088,25.1461818 24.4443636,25.4465455 24.5156364,25.8603636 L24.8385455,27.7374545 L24.845,27.78 L24.864,27.7403636 L25.96,25.1461818 L27.6014545,25.1461818 L27.0087273,29.9781818 L25.7694545,29.9781818 L26.1010909,27.2785455 L26.112,27.1861818 L26.0763636,27.272 L24.9330909,29.9781818 L24.1265455,29.9781818 L23.6203636,27.1905455 L23.6101818,27.2749091 L23.2778182,29.9781818 L22.1570909,29.9781818 L22.7498182,25.1461818 L23.6683636,25.1461818 Z M11.2050909,25.1461818 C11.5367273,25.1461818 11.8421818,25.3410909 11.984,25.6414545 L12.8029091,27.3876364 L12.8218182,27.4283636 L12.8276364,27.3832727 L13.1025455,25.1461818 L14.3149091,25.1461818 L13.7214545,29.9774545 L12.5483636,29.9774545 L11.3534545,27.4618182 L11.3345455,27.4210909 L11.3287273,27.4654545 L11.0203636,29.9774545 L9.81454545,29.9774545 L10.408,25.1461818 L11.2050909,25.1461818 Z M3.67127273,28.0349091 L2.99927273,28.0349091 L2.88654545,28.9541818 L3.56509091,28.9541818 C3.84509091,28.9541818 3.99636364,28.7847273 4.03345455,28.4843636 C4.07054545,28.1847273 3.96436364,28.0349091 3.67127273,28.0349091 Z M20.1010909,26.3127273 C19.7563636,26.3127273 19.5250909,26.4247273 19.3730909,26.664 C19.2203636,26.904 19.16,27.2603636 19.1170909,27.6094545 C19.0516364,28.1403636 19.0494545,28.5127273 19.2378182,28.7250909 C19.3512727,28.8538182 19.5301818,28.9156364 19.784,28.9156364 C20.5418182,28.9156364 20.672,28.3512727 20.7621818,27.6130909 C20.8269091,27.0850909 20.8298182,26.7149091 20.6414545,26.5018182 C20.5294545,26.3752727 20.3527273,26.3127273 20.1010909,26.3127273 Z M7.728,26.8305455 L7.712,26.8705455 L7.14181818,28.2029091 L7.13381818,28.2210909 L7.97527273,28.2210909 L7.97236364,28.2058182 L7.736,26.8734545 L7.728,26.8305455 Z M29.7949091,26.8138182 L29.7781818,26.8538182 L29.2058182,28.1912727 L29.1985455,28.2087273 L30.0429091,28.2087273 L30.04,28.1941818 L29.8029091,26.8567273 L29.7949091,26.8138182 Z M3.83709091,26.2087273 L3.224,26.2087273 L3.11272727,27.1090909 L3.72654545,27.1090909 C4.03927273,27.1090909 4.13745455,26.8938182 4.16945455,26.6327273 C4.20218182,26.3723636 4.15636364,26.2087273 3.83709091,26.2087273 Z" id="Combined-Shape" fill="#0D3567"></path></g></g></g></svg> 