<?xml version="1.0" encoding="UTF-8"?> <svg xmlns="http://www.w3.org/2000/svg" xmlns:xlink="http://www.w3.org/1999/xlink" width="40px" height="13px" viewBox="0 0 40 13" version="1.1"><!-- Generator: Sketch 64 (93537) - https://sketch.com --><title>Element/Cross/Loghi/Circuiti/Color/Visa</title><desc>Created with Sketch.</desc><defs><path d="M20.6450794,4.11326984 C20.6228571,5.88215873 22.2215873,6.86946032 23.4266667,7.4567619 L23.4266667,7.4567619 C24.6634921,8.05866667 25.0787302,8.44469841 25.0742857,8.98311111 L25.0742857,8.98311111 C25.0647619,9.8072381 24.0869841,10.1710476 23.1720635,10.1856508 L23.1720635,10.1856508 C21.575873,10.2104127 20.647619,9.75390476 19.9098413,9.40977778 L19.9098413,9.40977778 L19.3346032,12.1005714 C20.0749206,12.4415238 21.4457143,12.7393016 22.8673016,12.7526349 L22.8673016,12.7526349 C26.2050794,12.7526349 28.3873016,11.1050159 28.3993651,8.55073016 L28.3993651,8.55073016 C28.4126984,5.31009524 23.9161905,5.1304127 23.9473016,3.68088889 L23.9473016,3.68088889 C23.9580952,3.24215873 24.3765079,2.7735873 25.295873,2.65422222 L25.295873,2.65422222 C25.7498413,2.59390476 27.0050794,2.54755556 28.4279365,3.20342857 L28.4279365,3.20342857 L28.9873016,0.598984127 C28.2222222,0.320253968 27.2380952,0.0542222222 26.0133333,0.0542222222 L26.0133333,0.0542222222 C22.8730159,0.0542222222 20.6634921,1.72406349 20.6450794,4.11326984 L20.6450794,4.11326984 Z M34.3536508,0.278349206 C33.744127,0.278349206 33.2304762,0.633269841 33.0012698,1.17930159 L33.0012698,1.17930159 L28.2342857,12.560254 L31.5695238,12.560254 L32.2330159,10.7272381 L36.3073016,10.7272381 L36.6926984,12.560254 L39.631746,12.560254 L37.0673016,0.278349206 L34.3536508,0.278349206 Z M34.8203175,3.59644444 L35.7822222,8.20850794 L33.1466667,8.20850794 L34.8203175,3.59644444 Z M16.6019048,0.278349206 L13.9739683,12.560254 L17.151746,12.560254 L19.7784127,0.278349206 L16.6019048,0.278349206 Z M11.9015873,0.278349206 L8.59428571,8.63834921 L7.25587302,1.5304127 C7.09968254,0.736761905 6.47936508,0.278349206 5.79111111,0.278349206 L5.79111111,0.278349206 L0.383492063,0.278349206 L0.307936508,0.634539683 C1.4184127,0.875174603 2.67936508,1.26438095 3.44380952,1.67961905 L3.44380952,1.67961905 C3.91111111,1.9335873 4.04444444,2.15580952 4.19873016,2.75961905 L4.19873016,2.75961905 L6.73142857,12.560254 L10.0907937,12.560254 L15.2387302,0.278349206 L11.9015873,0.278349206 Z" id="path-1"></path><linearGradient x1="9.03448955%" y1="54.8718057%" x2="93.31202%" y2="44.8491892%" id="linearGradient-3"><stop stop-color="#212356" offset="0%"></stop><stop stop-color="#2449A5" offset="100%"></stop></linearGradient></defs><g id="Styleguide" stroke="none" stroke-width="1" fill="none" fill-rule="evenodd"><g id="Cross/Iconography" transform="translate(-641.000000, -2085.000000)"><g id="Cross/Element/Loghi/Circuiti/Color/Visa" transform="translate(641.000000, 2072.000000)"><g id="Group-3" transform="translate(0.000000, 13.000000)"><mask id="mask-2" fill="white"><use xlink:href="#path-1"></use></mask><g id="Clip-2"></g><path d="M20.6450794,4.11326984 C20.6228571,5.88215873 22.2215873,6.86946032 23.4266667,7.4567619 L23.4266667,7.4567619 C24.6634921,8.05866667 25.0787302,8.44469841 25.0742857,8.98311111 L25.0742857,8.98311111 C25.0647619,9.8072381 24.0869841,10.1710476 23.1720635,10.1856508 L23.1720635,10.1856508 C21.575873,10.2104127 20.647619,9.75390476 19.9098413,9.40977778 L19.9098413,9.40977778 L19.3346032,12.1005714 C20.0749206,12.4415238 21.4457143,12.7393016 22.8673016,12.7526349 L22.8673016,12.7526349 C26.2050794,12.7526349 28.3873016,11.1050159 28.3993651,8.55073016 L28.3993651,8.55073016 C28.4126984,5.31009524 23.9161905,5.1304127 23.9473016,3.68088889 L23.9473016,3.68088889 C23.9580952,3.24215873 24.3765079,2.7735873 25.295873,2.65422222 L25.295873,2.65422222 C25.7498413,2.59390476 27.0050794,2.54755556 28.4279365,3.20342857 L28.4279365,3.20342857 L28.9873016,0.598984127 C28.2222222,0.320253968 27.2380952,0.0542222222 26.0133333,0.0542222222 L26.0133333,0.0542222222 C22.8730159,0.0542222222 20.6634921,1.72406349 20.6450794,4.11326984 L20.6450794,4.11326984 Z M34.3536508,0.278349206 C33.744127,0.278349206 33.2304762,0.633269841 33.0012698,1.17930159 L33.0012698,1.17930159 L28.2342857,12.560254 L31.5695238,12.560254 L32.2330159,10.7272381 L36.3073016,10.7272381 L36.6926984,12.560254 L39.631746,12.560254 L37.0673016,0.278349206 L34.3536508,0.278349206 Z M34.8203175,3.59644444 L35.7822222,8.20850794 L33.1466667,8.20850794 L34.8203175,3.59644444 Z M16.6019048,0.278349206 L13.9739683,12.560254 L17.151746,12.560254 L19.7784127,0.278349206 L16.6019048,0.278349206 Z M11.9015873,0.278349206 L8.59428571,8.63834921 L7.25587302,1.5304127 C7.09968254,0.736761905 6.47936508,0.278349206 5.79111111,0.278349206 L5.79111111,0.278349206 L0.383492063,0.278349206 L0.307936508,0.634539683 C1.4184127,0.875174603 2.67936508,1.26438095 3.44380952,1.67961905 L3.44380952,1.67961905 C3.91111111,1.9335873 4.04444444,2.15580952 4.19873016,2.75961905 L4.19873016,2.75961905 L6.73142857,12.560254 L10.0907937,12.560254 L15.2387302,0.278349206 L11.9015873,0.278349206 Z" id="Fill-1" fill="url(#linearGradient-3)" mask="url(#mask-2)"></path></g></g></g></g></svg> 